<?xml version="1.0" encoding="UTF-8"?>
<svg xmlns="http://www.w3.org/2000/svg" xmlns:xlink="http://www.w3.org/1999/xlink" width="24px" height="24px" viewBox="0 0 24 24" version="1.1">
<g id="surface1">
<path style=" stroke:none;fill-rule:evenodd;fill:rgb(0%,0%,0%);fill-opacity:1;" d="M 9.449219 12.074219 L 9.449219 20.773438 C 9.449219 20.925781 9.523438 21 9.675781 21 L 13.125 21 C 13.273438 21 13.351562 20.925781 13.351562 20.773438 L 13.351562 11.925781 L 15.898438 11.925781 C 16.050781 11.925781 16.125 11.851562 16.125 11.699219 L 16.351562 9 C 16.351562 8.851562 16.273438 8.773438 16.125 8.773438 L 13.351562 8.773438 L 13.351562 6.898438 C 13.351562 6.449219 13.726562 6.074219 14.25 6.074219 L 16.199219 6.074219 C 16.425781 6.074219 16.5 6 16.5 5.851562 L 16.5 3.226562 C 16.5 3.074219 16.425781 3 16.273438 3 L 12.976562 3 C 11.023438 3 9.449219 4.425781 9.449219 6.226562 L 9.449219 8.773438 L 7.726562 8.773438 C 7.574219 8.773438 7.5 8.851562 7.5 9 L 7.5 11.699219 C 7.5 11.851562 7.574219 11.925781 7.726562 11.925781 L 9.449219 11.925781 Z M 9.449219 12.074219 "/>
</g>
</svg>
