<svg width="14" height="16" viewBox="0 0 14 16" fill="none" xmlns="http://www.w3.org/2000/svg">
<path d="M12.1679 0C11.6597 0 11.2767 0.147311 11.0262 0.449299C10.7758 0.751286 10.518 1.25951 10.2602 1.9887L6.95308 10.9894L3.88165 2.36434C3.59439 1.50994 3.32923 0.905963 3.09353 0.545051C2.85783 0.184139 2.42327 0 1.7972 0C1.46575 0 1.17112 0.0810211 0.891232 0.243063C0.611341 0.405105 0.39774 0.611341 0.235698 0.869135C0.0810211 1.12693 0 1.38472 0 1.64252C0 1.81193 0.0294622 2.0108 0.0883866 2.23913C0.147311 2.46746 0.220967 2.69579 0.309353 2.91676C0.39774 3.13773 0.486127 3.35869 0.567148 3.58702L4.18363 12.5288C4.54455 13.3906 4.80234 13.9651 4.95702 14.2597C5.11169 14.5543 5.34739 14.8195 5.66411 15.0699C5.98083 15.3204 6.4154 15.4382 6.95308 15.4382C7.37292 15.4382 7.72647 15.3572 8.01372 15.2025C8.30098 15.0478 8.55141 14.8269 8.75028 14.5396C8.94915 14.2597 9.13329 13.9135 9.29533 13.5158C9.45737 13.1181 9.58995 12.7866 9.69307 12.5288L13.339 3.49127C13.4421 3.24084 13.5305 3.01988 13.6115 2.82101C13.6926 2.62214 13.7589 2.4159 13.8178 2.19493C13.8767 1.97397 13.9062 1.7751 13.9062 1.61306C13.9062 1.18585 13.7368 0.810211 13.3979 0.486127C13.0591 0.162042 12.6467 0 12.1679 0Z" fill="white"/>
</svg>
