<svg width="156" height="15" viewBox="0 0 156 15" fill="none" xmlns="http://www.w3.org/2000/svg">
<path d="M98.3295 7.94864L100.825 3.29799H99.5719L96.9442 8.13554V9.10305H100.616V10.9941H101.826V9.10305H102.947V7.94864H101.826V6.12356H100.616V7.94864H98.3295Z" fill="white"/>
<path d="M104.394 9.64178C103.999 9.64178 103.702 9.93863 103.702 10.3564C103.702 10.7852 103.999 11.093 104.394 11.093C104.79 11.093 105.087 10.7852 105.087 10.3564C105.087 9.93863 104.79 9.64178 104.394 9.64178Z" fill="white"/>
<path d="M111.593 4.28749V3.29799H105.997V5.54085H107.141L107.152 4.4634H110.142L107.152 10.9941H108.526L111.593 4.28749Z" fill="white"/>
<path d="M118.136 5.10108C116.322 5.10108 115.08 6.29947 115.08 8.06958C115.08 9.82869 116.322 11.0381 118.136 11.0381C119.939 11.0381 121.182 9.82869 121.182 8.06958C121.182 6.29947 119.939 5.10108 118.136 5.10108ZM118.136 6.18953C119.181 6.18953 119.917 6.95914 119.917 8.08057C119.917 9.213 119.181 9.98261 118.136 9.98261C117.081 9.98261 116.344 9.213 116.344 8.08057C116.344 6.95914 117.081 6.18953 118.136 6.18953Z" fill="white"/>
<path d="M127.811 5.14506H126.547V8.0256C126.547 9.04808 125.953 9.82869 124.942 9.85068C124.095 9.85068 123.579 9.31195 123.579 8.43239V5.14506H122.314V8.78422C122.314 10.1805 123.117 11.0381 124.458 11.0381C125.415 11.0271 126.151 10.6643 126.547 9.85068V10.9941H127.811V5.14506Z" fill="white"/>
<path d="M132.675 9.65278C132.334 9.81769 132.059 9.90565 131.795 9.90565C131.399 9.90565 131.168 9.71874 131.168 9.11405V6.31047H132.894V5.36494H131.168V3.75976H129.915V5.36494H129.09V6.31047H129.915V9.34493C129.915 10.5433 130.674 11.0491 131.553 11.0491C132.048 11.0491 132.532 10.8951 132.993 10.6203L132.675 9.65278Z" fill="white"/>
<path d="M139.502 5.10108C137.688 5.10108 136.446 6.29947 136.446 8.06958C136.446 9.82869 137.688 11.0381 139.502 11.0381C141.306 11.0381 142.548 9.82869 142.548 8.06958C142.548 6.29947 141.306 5.10108 139.502 5.10108ZM139.502 6.18953C140.547 6.18953 141.284 6.95914 141.284 8.08057C141.284 9.213 140.547 9.98261 139.502 9.98261C138.447 9.98261 137.71 9.213 137.71 8.08057C137.71 6.95914 138.447 6.18953 139.502 6.18953Z" fill="white"/>
<path d="M146.1 3.88069C146.364 3.88069 146.661 3.97964 146.903 4.15556L147.387 3.18804C147.013 2.91318 146.54 2.78125 146.067 2.78125C145.056 2.78125 144.055 3.42992 144.055 4.79323V5.36494H143.286V6.31047H144.055V10.9941H145.309V6.31047H146.837V5.36494H145.309V4.67229C145.309 4.12257 145.672 3.88069 146.1 3.88069Z" fill="white"/>
<path d="M155.045 4.4634L155.034 3.29799H150.351V7.36593C150.867 7.31096 151.912 7.26698 152.374 7.26698C153.363 7.26698 153.968 7.75074 153.968 8.53134C153.968 9.3999 153.363 9.91664 152.363 9.91664C151.67 9.91664 150.9 9.61979 150.285 9.10305L149.768 10.1585C150.527 10.6863 151.593 11.0381 152.506 11.0381C154.232 11.0381 155.353 10.0156 155.353 8.45438C155.353 7.10207 154.276 6.11257 152.605 6.11257L151.549 6.12356V4.4634H155.045Z" fill="white"/>
<path d="M0.128418 0V14.4302H14.5586V0H0.128418ZM9.35545 9.01475L10.1998 11.6187L7.33644 9.53837L4.47305 11.6187L5.56746 8.25527L2.70406 6.17494L6.24203 6.17966L7.33644 2.81623L8.42614 6.17966H11.9641L9.10071 8.25527L7.33644 9.53837L9.35545 9.01475Z" fill="white"/>
<path d="M17.9945 0V14.4302H32.4247V0H17.9945ZM27.2215 9.01475L28.0659 11.6187L25.2025 9.53837L22.3391 11.6187L23.4335 8.25527L20.5701 6.17494L24.1081 6.17966L25.2025 2.81623L26.2922 6.17966H29.8302L26.9668 8.25527L25.2025 9.53837L27.2215 9.01475Z" fill="white"/>
<path d="M35.8604 0V14.4302H50.2906V0H35.8604ZM45.0874 9.01475L45.9318 11.6187L43.0684 9.53837L40.205 11.6187L41.2994 8.25527L38.436 6.17494L41.974 6.17966L43.0684 2.81623L44.1581 6.17966H47.696L44.8326 8.25527L43.0684 9.53837L45.0874 9.01475Z" fill="white"/>
<path d="M53.7264 0V14.4302H68.1566V0H53.7264ZM62.9535 9.01475L63.7979 11.6187L60.9345 9.53837L58.0711 11.6187L59.1655 8.25527L56.3021 6.17494L59.8401 6.17966L60.9345 2.81623L62.0242 6.17966H65.5621L62.6987 8.25527L60.9345 9.53837L62.9535 9.01475Z" fill="white"/>
<path d="M71.5923 0V14.4302H86.0225V0H71.5923ZM80.8193 9.01475L81.6637 11.6187L78.8003 9.53837L75.9369 11.6187L77.0313 8.25527L74.1679 6.17494L77.7059 6.17966L78.8003 2.81623L79.89 6.17966H83.428L80.5646 8.25527L78.8003 9.53837L80.8193 9.01475Z" fill="white"/>
</svg>
