<svg width="143" height="35" viewBox="0 0 143 35" fill="none" xmlns="http://www.w3.org/2000/svg">
<path d="M37.3993 12.3779H51.788V15.0527H46.1255V30.1623H43.0144V15.0527H37.3708L37.3993 12.3779ZM51.1715 17.2912H53.8273V19.7857H53.8747C53.9696 19.4253 54.1403 19.1028 54.3774 18.7708C54.6145 18.4388 54.8991 18.1258 55.2595 17.8697C55.5915 17.5852 55.9709 17.367 56.3977 17.2058C56.8056 17.0351 57.2324 16.9402 57.6497 16.9402C57.9817 16.9402 58.2188 16.9687 58.3327 16.9687C58.456 16.9971 58.5982 17.0161 58.7121 17.0161V19.7478C58.5224 19.7003 58.3042 19.6814 58.0955 19.6529C57.8869 19.6245 57.6877 19.6055 57.479 19.6055C57.0048 19.6055 56.559 19.7003 56.1227 19.89C55.6863 20.0797 55.3449 20.3643 55.0129 20.7247C54.6999 21.1041 54.4438 21.5594 54.2541 22.1C54.0644 22.6407 53.9696 23.2857 53.9696 23.997V30.1148H51.1241L51.1715 17.2912ZM71.7539 30.1623H68.9558V28.3601H68.9084C68.548 29.0241 68.0263 29.5173 67.3434 29.9251C66.6605 30.333 65.9491 30.5227 65.2377 30.5227C63.5494 30.5227 62.3258 30.1149 61.5576 29.2707C60.7988 28.436 60.4194 27.165 60.4194 25.4767V17.2912H63.2649V25.1827C63.2649 26.3209 63.4735 27.1271 63.9288 27.5824C64.3556 28.0566 64.9722 28.2937 65.7594 28.2937C66.357 28.2937 66.8502 28.1989 67.2485 28.0092C67.6469 27.8195 67.9884 27.5824 68.2255 27.2694C68.4911 26.9658 68.6523 26.5864 68.7661 26.1501C68.88 25.7138 68.9369 25.2491 68.9369 24.7558V17.2817H71.7824V30.1623H71.7539ZM76.5913 26.0363C76.6861 26.871 76.9991 27.4306 77.5398 27.791C78.0804 28.123 78.7538 28.2937 79.5031 28.2937C79.7687 28.2937 80.0722 28.2653 80.4042 28.2273C80.7362 28.1894 81.0682 28.104 81.3527 27.9902C81.6562 27.8669 81.8934 27.7057 82.0925 27.4685C82.2917 27.2314 82.3771 26.9469 82.3581 26.5864C82.3392 26.226 82.2159 25.9225 81.9503 25.6854C81.6847 25.4482 81.3812 25.2775 81.0018 25.1163C80.6224 24.974 80.1671 24.8507 79.6739 24.7558C79.1807 24.661 78.678 24.5472 78.1563 24.4239C77.6346 24.3006 77.1129 24.1583 76.6102 23.997C76.1075 23.8358 75.6902 23.6176 75.2823 23.3141C74.9029 23.0296 74.571 22.6691 74.3623 22.2233C74.1252 21.7775 74.0019 21.2464 74.0019 20.5919C74.0019 19.8806 74.1726 19.3115 74.5235 18.8372C74.8555 18.363 75.3013 17.9836 75.8325 17.699C76.3636 17.4145 76.9517 17.1963 77.5872 17.0825C78.2227 16.9687 78.8392 16.9118 79.4178 16.9118C80.0817 16.9118 80.7267 16.9781 81.3148 17.1204C81.9029 17.2627 82.4719 17.4809 82.9462 17.8033C83.4489 18.1069 83.8473 18.5432 84.1603 19.0364C84.4922 19.5391 84.6819 20.1556 84.7768 20.867H81.808C81.6657 20.1841 81.3622 19.7288 80.888 19.4917C80.3852 19.2545 79.8446 19.1312 79.1996 19.1312C79.0099 19.1312 78.7538 19.1597 78.4883 19.1787C78.2037 19.2261 77.9666 19.2735 77.7105 19.3684C77.4734 19.4632 77.2647 19.6055 77.094 19.7762C76.9232 19.9469 76.8284 20.1841 76.8284 20.4686C76.8284 20.8291 76.9517 21.0851 77.1888 21.3033C77.4259 21.5215 77.7295 21.6827 78.1373 21.8439C78.5167 21.9862 78.972 22.1095 79.4652 22.2044C79.9584 22.2992 80.4801 22.413 81.0113 22.5363C81.5424 22.6597 82.0262 22.8019 82.5289 22.9632C83.0316 23.1244 83.4774 23.3426 83.8568 23.6461C84.2362 23.9306 84.5681 24.2911 84.8053 24.7179C85.0424 25.1447 85.1657 25.6948 85.1657 26.3114C85.1657 27.0702 84.9949 27.7057 84.644 28.2558C84.2836 28.7775 83.8378 29.2327 83.2877 29.5647C82.7375 29.8967 82.102 30.1338 81.4381 30.3046C80.7552 30.4468 80.0817 30.5417 79.4178 30.5417C78.6116 30.5417 77.8528 30.4468 77.1604 30.2571C76.4679 30.0674 75.8514 29.7829 75.3582 29.4224C74.8555 29.043 74.4571 28.5878 74.1726 28.0282C73.888 27.4875 73.7268 26.8141 73.6983 26.0363H76.5723V26.0648L76.5913 26.0363ZM85.9529 17.2912H88.1155V13.4023H90.961V17.2627H93.5219V19.3684H90.961V26.245C90.961 26.5485 90.9895 26.7856 91.0084 27.0227C91.0369 27.2314 91.1033 27.4306 91.1792 27.5634C91.274 27.7057 91.4163 27.829 91.587 27.8954C91.7767 27.9618 92.0138 28.0187 92.3458 28.0187C92.5355 28.0187 92.7537 28.0187 92.9434 27.9902C93.1331 27.9618 93.3512 27.9428 93.5409 27.8954V30.0959C93.2374 30.1433 92.9244 30.1623 92.6209 30.1907C92.2889 30.2571 92.0044 30.2571 91.6724 30.2571C90.9136 30.2571 90.316 30.1907 89.8702 30.0485C89.4244 29.9062 89.064 29.688 88.7984 29.4319C88.5329 29.1474 88.3716 28.8154 88.2768 28.417C88.1819 28.0187 88.1345 27.516 88.106 26.9943V19.4063H85.9435V17.2437L85.9529 17.2912ZM95.5138 17.2912H98.1886V19.0459H98.236C98.6438 18.2871 99.1845 17.7654 99.8959 17.4334C100.607 17.1015 101.366 16.9307 102.22 16.9307C103.235 16.9307 104.117 17.1015 104.875 17.4714C105.634 17.8318 106.251 18.306 106.744 18.9415C107.247 19.5581 107.626 20.2979 107.863 21.1231C108.1 21.9483 108.243 22.8494 108.243 23.7789C108.243 24.661 108.119 25.4862 107.911 26.2924C107.674 27.0986 107.342 27.8385 106.896 28.455C106.45 29.0715 105.881 29.5742 105.17 29.9441C104.458 30.314 103.652 30.5132 102.703 30.5132C102.296 30.5132 101.869 30.4658 101.47 30.3899C101.072 30.314 100.664 30.2002 100.285 30.0295C99.9053 29.8588 99.5449 29.6501 99.2414 29.3845C98.9094 29.1189 98.6438 28.8154 98.4352 28.4834H98.3878V34.9143H95.5423V17.2722L95.5138 17.2912ZM105.445 23.7409C105.445 23.1718 105.378 22.6027 105.207 22.0526C105.065 21.512 104.828 21.0377 104.525 20.6014C104.221 20.1651 103.842 19.8426 103.405 19.5865C102.96 19.3209 102.428 19.2071 101.859 19.2071C100.674 19.2071 99.7726 19.615 99.156 20.4402C98.5585 21.2748 98.255 22.3846 98.255 23.7599C98.255 24.4239 98.3214 25.0119 98.4921 25.5621C98.6628 26.1122 98.8715 26.577 99.2035 26.9848C99.507 27.3927 99.8864 27.6962 100.342 27.9333C100.797 28.1704 101.29 28.2937 101.888 28.2937C102.552 28.2937 103.073 28.1515 103.519 27.8859C103.965 27.6203 104.325 27.2694 104.638 26.871C104.923 26.4442 105.141 25.9699 105.255 25.4198C105.378 24.8507 105.445 24.31 105.445 23.7409ZM110.453 12.3779H113.298V15.0527H110.453V12.3779ZM110.453 17.2912H113.298V30.1623H110.453V17.2912ZM115.831 12.3779H118.676V30.1623H115.831V12.3779ZM127.355 30.5227C126.34 30.5227 125.41 30.352 124.604 30.001C123.798 29.6501 123.134 29.1948 122.565 28.6067C122.024 28.0092 121.598 27.2788 121.313 26.4442C121.028 25.6095 120.858 24.6894 120.858 23.7125C120.858 22.7355 121 21.8439 121.313 21.0093C121.598 20.1746 122.024 19.4632 122.565 18.8467C123.106 18.2491 123.798 17.7749 124.604 17.4524C125.41 17.1299 126.331 16.9307 127.355 16.9307C128.379 16.9307 129.299 17.1015 130.106 17.4524C130.912 17.7844 131.576 18.2586 132.145 18.8467C132.685 19.4442 133.112 20.1746 133.397 21.0093C133.681 21.8439 133.852 22.7355 133.852 23.7125C133.852 24.7084 133.71 25.6095 133.397 26.4442C133.084 27.2788 132.685 27.9902 132.145 28.6067C131.604 29.2043 130.912 29.6785 130.106 30.001C129.299 30.3235 128.398 30.5227 127.355 30.5227ZM127.355 28.2653C127.971 28.2653 128.541 28.123 128.996 27.8574C129.47 27.5918 129.83 27.2409 130.134 26.8141C130.438 26.3873 130.656 25.894 130.798 25.3629C130.94 24.8222 131.016 24.2721 131.016 23.703C131.016 23.1624 130.95 22.6122 130.798 22.0716C130.646 21.5309 130.438 21.0567 130.134 20.6204C129.83 20.1841 129.442 19.8616 128.996 19.6055C128.522 19.3399 127.981 19.1976 127.355 19.1976C126.729 19.1976 126.169 19.3399 125.714 19.6055C125.24 19.8711 124.879 20.222 124.576 20.6204C124.272 21.0472 124.054 21.5215 123.912 22.0716C123.77 22.6217 123.694 23.1624 123.694 23.703C123.694 24.2721 123.76 24.8222 123.912 25.3629C124.064 25.9035 124.272 26.3778 124.576 26.8141C124.879 27.2504 125.268 27.5918 125.714 27.8574C126.198 28.1515 126.738 28.2653 127.355 28.2653ZM134.706 17.2912H136.859V13.4023H139.704V17.2627H142.265V19.3684H139.704V26.245C139.704 26.5485 139.723 26.7856 139.752 27.0227C139.771 27.2314 139.847 27.4306 139.922 27.5634C140.017 27.7057 140.16 27.829 140.33 27.8954C140.52 27.9618 140.757 28.0187 141.089 28.0187C141.279 28.0187 141.497 28.0187 141.687 27.9902C141.876 27.9618 142.095 27.9428 142.284 27.8954V30.0959C141.981 30.1433 141.668 30.1623 141.355 30.1907C141.051 30.2382 140.757 30.2382 140.425 30.2382C139.666 30.2382 139.069 30.1718 138.623 30.0295C138.177 29.8872 137.817 29.6691 137.551 29.413C137.295 29.1284 137.124 28.7964 137.03 28.3981C136.935 27.9997 136.887 27.497 136.859 26.9753V19.3873H134.706V17.2248V17.2912Z" fill="white"/>
<path d="M34.0795 12.3779H21.0567L17.054 0L13.0229 12.3779L0 12.3495L10.5283 20.0038L6.49721 32.3912L17.0255 24.7368L27.5539 32.3912L23.5512 20.0133L34.0795 12.3779Z" fill="white"/>
<path d="M24.4522 22.8117L23.5512 20.0137L17.054 24.7277L24.4522 22.8117Z" fill="#005128"/>
</svg>
