<svg width="129" height="38" viewBox="0 0 129 38" fill="none" xmlns="http://www.w3.org/2000/svg">
<path d="M21.4066 0C20.5125 0 19.8387 0.25916 19.3981 0.790438C18.9576 1.32172 18.504 2.21582 18.0505 3.49866L12.2324 19.3333L6.82887 4.15952C6.32351 2.65639 5.85702 1.59383 5.44236 0.958892C5.02771 0.32395 4.26318 0 3.16175 0C2.57864 0 2.06032 0.142538 1.56792 0.427614C1.07551 0.71269 0.699732 1.07551 0.414656 1.52904C0.142538 1.98257 0 2.4361 0 2.88963C0 3.18767 0.051832 3.53753 0.155496 3.93923C0.25916 4.34093 0.38874 4.74263 0.544236 5.13137C0.699732 5.52011 0.855228 5.90885 0.997766 6.31055L7.36015 22.0416C7.99509 23.5576 8.44862 24.5684 8.72074 25.0867C8.99286 25.605 9.40751 26.0715 9.96471 26.5121C10.5219 26.9526 11.2864 27.16 12.2324 27.16C12.971 27.16 13.5929 27.0174 14.0983 26.7453C14.6037 26.4732 15.0442 26.0845 15.3941 25.5791C15.744 25.0867 16.0679 24.4777 16.353 23.7779C16.6381 23.0782 16.8713 22.4951 17.0527 22.0416L23.4669 6.14209C23.6484 5.70152 23.8039 5.31278 23.9464 4.96291C24.0889 4.61305 24.2056 4.25023 24.3092 3.86148C24.4129 3.47274 24.4647 3.12288 24.4647 2.8378C24.4647 2.08624 24.1667 1.42538 23.5706 0.855228C22.9745 0.285076 22.2489 0 21.4066 0Z" fill="white"/>
<path d="M46.6099 1.63271C44.8865 0.570152 42.9946 0.038874 40.9343 0.038874C39.2239 0.038874 37.6948 0.401698 36.3342 1.12735C34.9866 1.85299 33.6778 2.9933 32.4209 4.5353V3.74486C32.4209 2.53977 32.1229 1.60679 31.5268 0.97185C30.9307 0.32395 30.1533 0 29.2073 0C28.2484 0 27.4839 0.310992 26.9267 0.945934C26.3695 1.56792 26.0974 2.52681 26.0974 3.79669V32.6153C26.0974 34.0666 26.3047 35.168 26.7064 35.9325C27.1081 36.6971 27.9504 37.0728 29.2073 37.0728C31.3454 37.0728 32.408 35.6086 32.408 32.6671V22.6376C33.5871 24.1278 34.8182 25.2422 36.114 26.0067C37.4098 26.7712 39.0165 27.16 40.9214 27.16C42.5022 27.16 43.9795 26.849 45.366 26.214C46.7395 25.5921 47.9446 24.685 48.9553 23.5188C49.9661 22.3526 50.7565 20.9142 51.3396 19.1908C51.9227 17.4674 52.2078 15.5885 52.2078 13.5282C52.2078 10.7422 51.7024 8.31904 50.7047 6.28463C49.7069 4.25023 48.3333 2.69526 46.6099 1.63271ZM44.6533 18.1282C44.0831 19.4111 43.3186 20.3829 42.3727 21.0308C41.4267 21.6787 40.403 22.0027 39.2887 22.0027C37.4227 22.0027 35.8677 21.2641 34.6108 19.7869C33.3539 18.3097 32.7319 16.2493 32.7319 13.58C32.7319 10.7551 33.3669 8.61707 34.6238 7.16578C35.8937 5.71448 37.4357 4.98883 39.2887 4.98883C40.4419 4.98883 41.5045 5.32574 42.4504 5.99956C43.4093 6.67337 44.1479 7.64522 44.6922 8.91511C45.2364 10.185 45.4955 11.6881 45.4955 13.4504C45.5085 15.2775 45.2234 16.8454 44.6533 18.1282Z" fill="white"/>
<path d="M57.8575 0C56.8727 0 56.0823 0.336908 55.4732 0.997766C54.8642 1.67158 54.5532 2.65639 54.5532 3.97811V23.0912C54.5532 24.3999 54.8642 25.3977 55.4732 26.0974C56.0823 26.7971 56.8857 27.147 57.8575 27.147C58.8294 27.147 59.6457 26.8101 60.2807 26.1233C60.9156 25.4366 61.2396 24.4258 61.2396 23.0912V3.79669C61.2396 2.60456 60.9156 1.67158 60.2807 1.01072C59.6457 0.336908 58.8423 0 57.8575 0Z" fill="white"/>
<path d="M87.6868 4.40572C87 3.00626 85.9634 1.91778 84.5769 1.15326C83.1904 0.38874 81.6225 0 79.8602 0C78.0461 0 76.4522 0.362824 75.0528 1.08847C73.6533 1.81412 72.3705 2.95442 71.2042 4.49643V3.69303C71.2042 2.88963 71.0617 2.21582 70.7766 1.65862C70.4915 1.10143 70.1158 0.686774 69.6363 0.414656C69.1569 0.142538 68.6256 0 68.0425 0C67.0836 0 66.3191 0.310992 65.7619 0.945934C65.2047 1.56792 64.9326 2.52681 64.9326 3.79669V23.1041C64.9326 24.4129 65.2435 25.4106 65.8655 26.1104C66.4875 26.8101 67.278 27.16 68.2368 27.16C69.2346 27.16 70.038 26.8231 70.673 26.1492C71.2949 25.4754 71.6189 24.4517 71.6189 23.1041V14.7332C71.6189 12.0121 71.7873 10.1461 72.1113 9.16131C72.5648 7.90438 73.2775 6.93253 74.2623 6.21984C75.2471 5.50715 76.3226 5.15728 77.5148 5.15728C79.3419 5.15728 80.5599 5.7404 81.1689 6.90661C81.778 8.07283 82.0889 9.75737 82.0889 11.9602V23.0912C82.0889 24.3999 82.3999 25.3977 83.0219 26.0974C83.6439 26.7971 84.4473 27.147 85.4451 27.147C86.4299 27.147 87.2203 26.8101 87.8293 26.1233C88.4384 25.4366 88.7494 24.4258 88.7494 23.0912V10.6644C88.7494 9.20018 88.6846 7.99509 88.555 7.04915C88.4125 6.10322 88.1274 5.22207 87.6868 4.40572Z" fill="white"/>
<path d="M113.745 0C112.851 0 112.113 0.32395 111.543 0.958892C110.972 1.59383 110.687 2.48794 110.687 3.65416V4.56122C109.495 3.00626 108.212 1.87891 106.826 1.15326C105.439 0.427614 103.807 0.06479 101.915 0.06479C100.334 0.06479 98.8826 0.349866 97.5609 0.90706C96.2392 1.46425 95.073 2.30652 94.0622 3.42091C93.0515 4.5353 92.274 5.89589 91.7298 7.50268C91.1856 9.12243 90.9135 10.9236 90.9135 12.9321C90.9135 15.6274 91.367 17.9987 92.2611 20.046C93.1552 22.1064 94.438 23.7002 96.1096 24.8405C97.7812 25.9808 99.7379 26.5509 101.967 26.5509C103.833 26.5509 105.426 26.1752 106.774 25.4236C108.122 24.672 109.301 23.5836 110.337 22.1452C110.299 24.3351 110.26 25.916 110.195 26.9008C110.13 27.8856 109.91 28.8186 109.521 29.6738C109.132 30.5291 108.472 31.2158 107.513 31.6953C106.554 32.1747 105.219 32.4209 103.483 32.4209C102.64 32.4209 101.889 32.3432 101.228 32.1877C100.567 32.0322 100.023 31.7989 99.5564 31.475C99.0899 31.151 98.6623 30.7753 98.2865 30.3217C97.8978 29.8682 97.535 29.4276 97.1722 28.9871C96.4336 28.1189 95.5783 27.6913 94.6065 27.6913C93.829 27.6913 93.1552 27.9504 92.598 28.4558C92.0408 28.9611 91.7687 29.635 91.7687 30.4513C91.7687 31.5268 92.2611 32.5764 93.2329 33.6001C94.2177 34.6238 95.6042 35.4531 97.4184 36.101C99.2325 36.7489 101.28 37.0728 103.586 37.0728C106.1 37.0728 108.199 36.8137 109.884 36.3213C111.569 35.8159 112.942 35.0384 113.979 34.0018C115.028 32.9522 115.78 31.6305 116.259 30.0367C116.726 28.4428 116.972 26.525 116.972 24.3092V4.89813C116.972 3.31725 116.765 2.0992 116.337 1.26988C115.896 0.414656 115.028 0 113.745 0ZM109.508 17.9987C108.886 19.2038 108.083 20.0979 107.098 20.6939C106.113 21.29 105.064 21.588 103.949 21.588C102.07 21.588 100.541 20.9013 99.3621 19.5148C98.1829 18.1282 97.5868 16.0809 97.5868 13.3727C97.5868 10.7033 98.157 8.63003 99.3102 7.17873C100.463 5.72744 101.993 5.00179 103.897 5.00179C105.854 5.00179 107.435 5.75335 108.627 7.2824C109.832 8.79848 110.428 10.9236 110.428 13.6448C110.441 15.3423 110.13 16.7936 109.508 17.9987Z" fill="white"/>
<path d="M124.98 35.92C126.884 35.92 128.427 34.3768 128.427 32.4732C128.427 30.5696 126.884 29.0264 124.98 29.0264C123.076 29.0264 121.533 30.5696 121.533 32.4732C121.533 34.3768 123.076 35.92 124.98 35.92Z" fill="#FFB800"/>
</svg>
