<svg width="58" height="24" viewBox="0 0 58 24" fill="none" xmlns="http://www.w3.org/2000/svg">
<path fill-rule="evenodd" clip-rule="evenodd" d="M45.6791 16.2419C48.154 16.2419 50.1546 14.2352 50.1546 11.7542C50.1546 9.27935 48.1479 7.2666 45.6791 7.2666C43.2042 7.2666 41.2036 9.27327 41.2036 11.7542C41.2036 14.2352 43.2103 16.2419 45.6791 16.2419Z" fill="#666E6D"/>
<path fill-rule="evenodd" clip-rule="evenodd" d="M45.7338 0C40.6016 0 36.2356 3.30188 34.6424 7.89897C34.7032 7.44899 34.7336 6.95644 34.7336 6.41525C34.7336 4.71263 33.7546 2.86406 32.3621 1.86073C31.0547 0.918202 29.7352 0.340525 28.1603 0.340525H17.9932V23.5023H27.5279C29.4129 23.5023 31.0243 22.8091 32.6297 21.6538C34.1195 20.5896 35.0681 18.6985 35.0681 16.9046C35.0681 16.8195 35.0681 16.7405 35.0681 16.6553C36.9227 20.7051 41.003 23.5145 45.746 23.5145C52.2281 23.5145 57.488 18.2485 57.488 11.7542C57.4759 5.2599 52.222 0 45.7338 0ZM23.922 5.36327H26.409C27.6191 5.36327 28.8961 5.5761 28.8961 7.12671C28.9873 8.52529 28.1481 9.35228 26.4759 9.35228L23.928 9.36444V5.36327H23.922ZM28.5373 17.8168C28.0204 18.2424 27.3211 18.212 26.6826 18.212H23.9159V13.9615H26.4394C27.9657 13.9615 29.2731 14.3568 29.34 16.1445C29.34 16.7222 28.9933 17.4823 28.5373 17.8168ZM34.1316 13.3535C33.6756 12.7515 33.0128 12.1799 32.0581 11.6265C33.1405 11.0671 33.8337 10.3799 34.2472 9.46782C34.1012 10.2097 34.0222 10.9759 34.0222 11.7603C34.0283 12.3015 34.0647 12.8305 34.1316 13.3535ZM45.6791 17.8715C42.3042 17.8715 39.574 15.1351 39.574 11.7542C39.574 8.37327 42.3103 5.63691 45.6791 5.63691C49.0539 5.63691 51.7842 8.37327 51.7842 11.7542C51.7903 15.1351 49.0539 17.8715 45.6791 17.8715Z" fill="#666E6D"/>
<path fill-rule="evenodd" clip-rule="evenodd" d="M10.7205 8.84188H5.91662V0.29834H0V23.5392H5.8923V14.4666H10.6901V23.5392H16.6857V0.29834H10.7205V8.84188Z" fill="#666E6D"/>
</svg>
