<svg width="65" height="98" viewBox="0 0 65 98" fill="none" xmlns="http://www.w3.org/2000/svg">
<path d="M63.0493 39.5874C62.7767 39.5342 60.679 39.1311 57.6603 38.591V25.6241C57.6603 11.6798 46.4481 0.334961 32.6645 0.334961C18.8809 0.334961 7.66681 11.6798 7.66681 25.6241V38.5321C4.47138 39.1025 2.23082 39.5342 1.94887 39.5874C1.04475 39.7624 0.390625 40.5611 0.390625 41.4928V63.3363C0.390625 70.1421 5.70444 77.9842 16.1836 86.6497C23.7643 92.9173 31.219 97.2587 31.5329 97.4393C31.828 97.6105 32.157 97.696 32.4859 97.696C32.8148 97.696 33.1438 97.6105 33.4389 97.4393C33.7528 97.2568 41.2151 92.9173 48.8014 86.6497C59.2899 77.9861 64.6094 70.1421 64.6094 63.3363V41.4928C64.6075 40.5611 63.9534 39.7624 63.0493 39.5874ZM37.3618 69.1095C37.4294 69.5374 37.3072 69.9728 37.0291 70.3037C36.7509 70.6327 36.3449 70.8228 35.9163 70.8228H29.4108C28.9784 70.8228 28.5687 70.6289 28.2905 70.2961C28.0123 69.9614 27.8939 69.5203 27.9691 69.0905L28.939 63.4466C27.9352 62.4464 27.3563 61.0753 27.3563 59.6206C27.3563 56.6599 29.7378 54.2505 32.6626 54.2505C35.5892 54.2505 37.9689 56.6599 37.9689 59.6206C37.9689 61.0316 37.4163 62.3779 36.4558 63.3724L37.3618 69.1095ZM45.4142 36.5639C40.3617 35.8128 35.4313 35.2195 32.4859 35.2195H32.484C29.6081 35.2195 24.8394 35.7881 19.9128 36.5145V25.6241C19.9128 18.5122 25.6326 12.7238 32.6645 12.7238C39.6963 12.7238 45.4161 18.5103 45.4161 25.6241V36.5639H45.4142Z" fill="#922FF7"/>
<path d="M32.4877 39.0986L4.2251 43.1034V63.3362C4.2251 68.8413 9.19869 75.8638 18.6102 83.6451C24.4033 88.4352 30.2472 92.1357 32.4859 93.501C34.7321 92.13 40.6098 88.4124 46.4142 83.6128C55.8087 75.8448 60.7748 68.8337 60.7748 63.3343V43.1015C55.5719 42.1336 38.7884 39.0986 32.4877 39.0986ZM37.3617 69.1094C37.4294 69.5373 37.3072 69.9727 37.029 70.3036C36.7508 70.6326 36.3448 70.8227 35.9162 70.8227H29.4107C28.9784 70.8227 28.5686 70.6288 28.2904 70.296C28.0123 69.9613 27.8938 69.5202 27.969 69.0904L28.9389 63.4465C27.9352 62.4463 27.3563 61.0752 27.3563 59.6205C27.3563 56.6598 29.7378 54.2504 32.6625 54.2504C35.5892 54.2504 37.9688 56.6598 37.9688 59.6205C37.9688 61.0315 37.4162 62.3778 36.4557 63.3723L37.3617 69.1094Z" fill="#5A09AC"/>
<path d="M8.91872 44.9424C7.86047 44.9424 7.00146 45.8114 7.00146 46.882V49.4035C7.00146 50.4741 7.86047 51.3431 8.91872 51.3431C9.97697 51.3431 10.836 50.4741 10.836 49.4035V46.882C10.836 45.8114 9.97697 44.9424 8.91872 44.9424Z" fill="#CCF2EE"/>
<path d="M8.91872 54.6406C7.86047 54.6406 7.00146 55.5097 7.00146 56.5802V63.1978C7.00146 64.2683 7.86047 65.1374 8.91872 65.1374C9.97697 65.1374 10.836 64.2683 10.836 63.1978V56.5802C10.836 55.5077 9.97697 54.6406 8.91872 54.6406Z" fill="#CCF2EE"/>
<path d="M13.7888 36.6876C12.7513 36.6876 11.9092 35.8357 11.9092 34.786V25.7953C11.9092 14.0036 21.3921 4.4082 33.0498 4.4082C34.0874 4.4082 34.9294 5.26011 34.9294 6.30979C34.9294 7.35946 34.0874 8.21137 33.0498 8.21137C23.4654 8.21137 15.6685 16.0991 15.6685 25.7953V34.786C15.6685 35.8376 14.8264 36.6876 13.7888 36.6876Z" fill="#5A09AC"/>
</svg>
