<svg width="95" height="74" viewBox="0 0 95 74" fill="none" xmlns="http://www.w3.org/2000/svg">
<g opacity="0.08">
<path d="M94.5316 40.0848L71.4987 40.0848C71.8924 22.3679 76.6535 20.3568 82.6333 19.7827L84.9393 19.481L84.9393 -0.000472071L82.2813 0.149873C74.4727 0.61355 65.8397 2.09924 60.0801 9.60361C55.0312 16.1822 52.8053 26.9297 52.8053 43.4282L52.8053 74L94.5316 74L94.5316 40.0848Z" fill="white"/>
<path d="M41.7263 74L41.7263 40.0848L19.0008 40.0848C19.3946 22.3679 24.0017 20.3568 29.9815 19.7827L32.134 19.481L32.134 -0.000472071L29.6295 0.149873C21.8209 0.61355 13.1107 2.09923 7.351 9.60361C2.30261 16.1821 -7.44119e-06 26.9297 -6.17008e-06 43.4282L-3.8147e-06 74L41.7263 74Z" fill="white"/>
</g>
</svg>
