<svg width="87" height="24" viewBox="0 0 87 24" fill="none" xmlns="http://www.w3.org/2000/svg">
<path d="M11.8425 0.127441C10.6565 0.127441 9.39172 0.127441 8.20565 0.127441C8.1996 5.07141 8.19355 8.27863 8.1875 13.2226C6.62624 8.39361 5.05894 5.20454 3.49164 0.127441C2.16034 0.127441 1.3313 0.127441 0 0.127441C0 7.85503 0 15.5826 0 23.3102C1.18002 23.1408 2.4387 22.9834 3.61872 22.8261C3.62477 17.985 3.63082 15.0017 3.63082 10.1606C5.25258 14.9291 6.25106 17.743 7.87283 22.2754C9.14361 22.1302 10.5354 21.9547 11.8062 21.8216C11.8183 14.5902 11.8304 7.35882 11.8425 0.127441Z" fill="#666E6D"/>
<path d="M25.4279 0.127441C22.0573 0.127441 18.723 0.127441 15.3524 0.127441C15.3403 7.25595 15.3282 14.3845 15.3101 21.519C18.6807 21.2104 22.0513 20.9623 25.4279 20.7686C25.4279 19.7278 25.434 18.2271 25.434 17.1862C23.2373 17.3194 21.1375 17.4646 18.953 17.6098C18.959 15.6916 18.959 14.1061 18.9651 12.1939C20.5626 12.1636 22.251 12.1878 23.8848 12.1636C23.8848 11.1167 23.8909 9.60993 23.8909 8.56304C22.2752 8.5933 20.5626 8.5933 18.9711 8.62356C18.9772 6.70527 18.9772 5.65234 18.9832 3.74011C19.9878 3.728 20.9681 3.728 21.9484 3.728C22.1178 3.728 22.2933 3.728 22.4628 3.728C22.6322 3.728 22.8077 3.728 22.9771 3.728C23.7941 3.728 24.6171 3.728 25.4521 3.72195C25.4521 2.66901 25.4279 1.16828 25.4279 0.127441Z" fill="#666E6D"/>
<path d="M39.007 0.145508C35.3096 0.145508 31.4852 0.145508 27.7878 0.145508C27.7878 1.18029 27.7817 2.67498 27.7817 3.70976C27.9451 3.70976 28.1025 3.70976 28.2658 3.70976C28.756 3.70976 29.2401 3.71581 29.7303 3.72186C30.2144 3.72792 30.7045 3.73397 31.1887 3.73397C31.3157 3.73397 31.4368 3.73397 31.5638 3.73397C31.5578 9.48276 31.5517 14.7293 31.5396 20.4781C32.7257 20.4357 33.9965 20.3994 35.1826 20.3692C35.1886 14.6506 35.1947 9.43435 35.2007 3.71581C36.4533 3.70976 37.7483 3.70976 39.007 3.70371C39.007 2.67498 39.007 1.16214 39.007 0.145508Z" fill="#666E6D"/>
<path d="M51.4849 0.127441C48.1143 0.127441 44.7377 0.127441 41.3671 0.127441C41.3671 6.8384 41.3671 13.5494 41.3671 20.2603C41.7604 20.2603 42.1537 20.2603 42.5531 20.2603C43.364 20.2603 44.1749 20.2603 44.9737 20.2724C44.9737 17.4222 44.9737 14.8262 44.9737 11.976C45.1734 11.976 45.3731 11.976 45.5728 11.976C46.0448 11.976 46.5228 11.976 47.0009 11.97C47.4789 11.97 47.9631 11.9639 48.4411 11.9639C48.9313 11.9639 49.4214 11.9639 49.8995 11.97C49.8995 10.9473 49.8995 9.42839 49.8995 8.41176C49.4517 8.40571 48.9918 8.40571 48.5258 8.40571C48.0296 8.40571 47.5274 8.40571 47.0251 8.41176C46.5228 8.41176 46.0266 8.41781 45.5365 8.41781C45.3489 8.41781 45.1613 8.41781 44.9797 8.41781C44.9797 6.58425 44.9797 5.55552 44.9797 3.72195C45.3731 3.72195 45.7725 3.72195 46.1658 3.72195C46.5652 3.72195 46.9646 3.72195 47.3579 3.72195C47.7573 3.72195 48.1627 3.72195 48.5621 3.72195C49.5425 3.72195 50.5167 3.72195 51.5031 3.728C51.491 2.69927 51.4849 1.15012 51.4849 0.127441Z" fill="#666E6D"/>
<path d="M53.8451 0.145508C53.8511 6.92304 53.8209 13.6945 53.833 20.472C57.0644 20.5931 60.4653 20.7262 63.6967 20.944C63.6967 19.9032 63.6906 18.4025 63.6906 17.3616C61.6453 17.2406 59.5152 17.0954 57.4698 17.0107C57.4577 11.2074 57.494 5.94271 57.4819 0.145508C56.3019 0.145508 55.0311 0.145508 53.8451 0.145508Z" fill="#666E6D"/>
<path d="M66.6799 0.145508C66.692 7.15299 66.7102 14.1605 66.7223 21.1679C67.9084 21.2587 69.1307 21.3555 70.3168 21.4645C70.3228 14.3662 70.3289 7.25586 70.3168 0.145508C69.1307 0.145508 67.866 0.145508 66.6799 0.145508Z" fill="#666E6D"/>
<path d="M73.4333 0.1457C74.8857 3.68575 76.217 7.24395 77.6935 11.0018C76.1565 14.6145 74.5952 18.209 73.0642 21.6704C74.335 21.7975 75.6481 21.979 76.9189 22.1182C77.8266 19.8852 78.6557 18.1667 79.5694 15.8732C80.4771 18.3179 81.3062 20.206 82.2139 22.7233C83.4786 22.8867 85.1246 23.1227 86.3893 23.3043C84.8583 19.2014 83.176 14.9352 81.6329 11.0563C83.17 7.41944 84.7373 3.93991 86.3349 0.139648C85.0278 0.139648 83.6723 0.139648 82.3652 0.139648C81.3788 2.49363 80.701 4.00042 79.757 6.23942C78.8796 3.90965 78.2865 2.40286 77.4091 0.139648C76.0959 0.1457 74.7465 0.1457 73.4333 0.1457Z" fill="#666E6D"/>
</svg>
