<svg width="18" height="17" viewBox="0 0 18 17" fill="none" xmlns="http://www.w3.org/2000/svg">
<path d="M8.23916 1.34164C8.47864 0.604591 9.52136 0.604592 9.76085 1.34164L11.0655 5.35704C11.1726 5.68666 11.4798 5.90983 11.8264 5.90983H16.0484C16.8234 5.90983 17.1456 6.90152 16.5186 7.35704L13.1029 9.8387C12.8226 10.0424 12.7052 10.4035 12.8123 10.7331L14.117 14.7485C14.3565 15.4856 13.5129 16.0985 12.8859 15.643L9.47023 13.1613C9.18984 12.9576 8.81016 12.9576 8.52977 13.1613L5.11407 15.643C4.48709 16.0985 3.64351 15.4856 3.88299 14.7485L5.18768 10.7331C5.29478 10.4035 5.17745 10.0424 4.89706 9.8387L1.48135 7.35704C0.854382 6.90152 1.1766 5.90983 1.95158 5.90983H6.17363C6.52021 5.90983 6.82737 5.68666 6.93447 5.35704L8.23916 1.34164Z" stroke="#FFB800"/>
</svg>
