<svg width="77" height="25" viewBox="0 0 77 25" fill="none" xmlns="http://www.w3.org/2000/svg">
<path d="M44.9156 9.44424C44.9734 9.25153 45.0312 9.06846 45.089 8.87575C45.5323 7.38707 45.9707 5.90803 46.4139 4.41936L46.4717 4.24592C46.5199 4.07248 46.6837 3.96649 46.8571 3.96649H48.3169C48.683 3.96649 48.7601 4.07248 48.6349 4.41936L48.0567 5.94657C47.4112 7.61832 46.7704 9.29971 46.1248 10.9666C46.1056 11.0245 46.0767 11.0823 46.0574 11.1401C45.9899 11.3424 45.7876 11.4773 45.5756 11.4581C45.1517 11.4484 44.7325 11.4484 44.3086 11.4581C44.0099 11.4677 43.8364 11.3328 43.7304 11.063C43.4895 10.4271 43.239 9.7863 43.0029 9.15036C42.4248 7.64241 41.8419 6.13447 41.2638 4.61688C41.2059 4.50126 41.1674 4.36636 41.1385 4.2411C41.1096 4.04839 41.177 3.95204 41.3697 3.95204C41.919 3.9424 42.4634 3.95204 43.0029 3.95204C43.2342 3.95204 43.3402 4.1062 43.398 4.30855C43.504 4.6747 43.61 5.04566 43.7256 5.41181C44.1207 6.74632 44.5013 8.09046 44.8963 9.42497C44.8867 9.44424 44.8963 9.44424 44.9156 9.44424Z" fill="#666E6D"/>
<path d="M51.7136 7.71987V11.1742C51.6943 11.3669 51.6076 11.4536 51.4149 11.4632C50.8946 11.4729 50.3887 11.4729 49.8684 11.4632C49.6757 11.4632 49.589 11.3669 49.5697 11.1838C49.5601 11.126 49.5601 11.0586 49.5601 11.0007V4.3571C49.5697 4.0584 49.6468 3.97168 49.9455 3.97168H51.3282C51.6269 3.97168 51.7136 4.0584 51.7136 4.3571V7.71987Z" fill="#666E6D"/>
<path d="M50.6487 0.526884C50.8414 0.507613 51.0341 0.546154 51.2172 0.623238C51.593 0.76777 51.8531 1.11465 51.8676 1.51452C51.9447 2.38653 51.3569 2.82976 50.5813 2.81049C50.4753 2.81049 50.3693 2.79121 50.2633 2.77194C49.6659 2.62741 49.3624 2.16491 49.4202 1.50488C49.4684 0.974932 49.8827 0.584696 50.4464 0.536519C50.5138 0.526884 50.5813 0.517248 50.6487 0.526884Z" fill="#666E6D"/>
<path d="M76.8427 7.12277V7.16131C76.8042 7.12277 76.7849 7.06496 76.8042 7.01678V6.9397C76.8042 6.9397 76.8042 6.93006 76.8138 6.93006H76.8042V6.83371H76.8235C76.8235 6.82407 76.8138 6.82407 76.8138 6.81443C76.7946 6.63136 76.756 6.44829 76.7078 6.27485C76.3513 5.00779 75.5564 4.17432 74.2604 3.84672C73.6534 3.70219 73.0415 3.68291 72.4249 3.77927C71.1289 3.97198 70.1991 4.66091 69.7462 5.88943C69.303 7.06014 69.3126 8.34647 69.7559 9.51718C70.1413 10.5819 70.9073 11.2564 72.0106 11.5358C72.5983 11.6803 73.2102 11.7189 73.8172 11.6322C75.8358 11.3913 76.6693 9.86405 76.8042 8.53918H76.7946V8.40428C76.7849 8.34647 76.7753 8.29829 76.8331 8.25975V8.27902C76.8331 8.26939 76.8427 8.25012 76.8524 8.24048V7.13722C76.8524 7.1324 76.8427 7.1324 76.8427 7.12277ZM74.535 8.94869C74.4772 9.15103 74.3905 9.3341 74.2653 9.50754C74.0533 9.80624 73.716 9.99895 73.3547 10.0279C73.1716 10.0471 72.9886 10.0471 72.8055 10.0086C72.4008 9.9315 72.0684 9.66171 71.9046 9.29074C71.76 8.99205 71.6733 8.66444 71.6444 8.34165C71.5962 7.77316 71.5866 7.20949 71.7215 6.65063C71.7697 6.42902 71.866 6.2074 71.9817 6.01469C72.1936 5.66782 72.5598 5.4462 72.9597 5.41729C73.1427 5.39802 73.3258 5.39802 73.5089 5.43657C73.8943 5.51365 74.2074 5.76417 74.3809 6.11586C74.5447 6.4531 74.641 6.82407 74.6603 7.19985C74.6699 7.37329 74.6796 7.54673 74.6699 7.72017C74.6988 8.13931 74.6507 8.55363 74.535 8.94869Z" fill="#666E6D"/>
<path d="M60.0095 0.594727H58.675C58.3089 0.594727 58.2414 0.662175 58.2414 1.02832V4.13575C58.2414 4.2032 58.2704 4.27065 58.2222 4.3381C58.1355 4.32846 58.0873 4.27065 58.0198 4.23211C57.0226 3.64435 55.9771 3.53836 54.9172 4.02976C54.1801 4.37664 53.7176 4.99813 53.4189 5.74006C53.1298 6.44826 53.0624 7.19983 53.0817 7.95621C53.0817 8.66442 53.2455 9.3678 53.5634 9.99892C53.9296 10.6975 54.4547 11.2371 55.2256 11.4683C56.271 11.7959 57.2538 11.6321 58.1451 10.9673C58.2125 10.9287 58.2511 10.8613 58.3378 10.842C58.386 10.948 58.4245 11.0636 58.4438 11.1793C58.4823 11.3334 58.6172 11.4394 58.781 11.4394H59.0123C59.3592 11.4394 59.6916 11.4491 60.0288 11.4394C60.2986 11.4394 60.3757 11.3527 60.3853 11.0733V0.960874C60.3757 0.662175 60.2986 0.594727 60.0095 0.594727ZM58.2511 7.66233V9.41116C58.2704 9.52679 58.2029 9.63278 58.0969 9.68095C57.6344 9.94111 57.1093 10.0471 56.589 9.97002C56.1457 9.92184 55.7651 9.65205 55.5628 9.26181C55.4086 8.95348 55.3219 8.62587 55.293 8.29345C55.2159 7.68642 55.2641 7.07457 55.4086 6.4868C55.4568 6.323 55.5146 6.16883 55.6013 6.01467C55.8037 5.63888 56.1891 5.398 56.6082 5.36909C57.1189 5.32091 57.6248 5.41727 58.0873 5.62925C58.2029 5.66779 58.2703 5.78342 58.2607 5.90868C58.2414 6.50126 58.2511 7.07457 58.2511 7.66233Z" fill="#666E6D"/>
<path d="M65.8102 8.41836C66.3691 8.37981 66.9231 8.27382 67.4241 8.00403C67.9348 7.75351 68.2865 7.28619 68.3925 6.72733C68.46 6.38046 68.46 6.01913 68.3829 5.67225C68.1805 4.80988 67.6361 4.2703 66.8075 3.99087C66.345 3.84634 65.8584 3.78852 65.3766 3.80779C63.7627 3.84634 62.5341 4.66053 62.0331 6.27447C61.6959 7.33919 61.744 8.42317 62.0717 9.49271C62.4089 10.5863 63.1749 11.2512 64.2685 11.5499C64.7407 11.6655 65.2273 11.7137 65.709 11.6944C66.4076 11.6848 67.111 11.5499 67.771 11.2994C68.0504 11.1934 68.1179 11.097 68.1179 10.7983V10.1094C68.1083 9.82995 67.9926 9.73359 67.7132 9.80104C67.5012 9.85886 67.2989 9.90703 67.0869 9.95521C66.4413 10.1094 65.7717 10.1383 65.1165 10.0227C64.4612 9.8974 64.0228 9.52161 63.8494 8.87122C63.8012 8.67851 63.7627 8.4858 63.7434 8.28346C63.7916 8.28346 63.8398 8.28346 63.8783 8.30273C64.5239 8.41836 65.1646 8.46653 65.8102 8.41836ZM63.8012 6.8815C63.8687 6.50572 63.9554 6.14439 64.1866 5.83606C64.5431 5.36392 65.0297 5.22902 65.5886 5.28684C65.6368 5.28684 65.6753 5.30611 65.7235 5.30611C66.398 5.4121 66.5569 5.95168 66.4317 6.46718C66.3353 6.8526 66.0174 6.99713 65.6657 7.06458C65.473 7.10312 65.2706 7.12239 65.0683 7.11275C64.6732 7.10312 64.2926 7.07421 63.9072 7.0164C63.8205 7.00676 63.7819 6.96822 63.8012 6.8815Z" fill="#666E6D"/>
<path d="M38.0648 24.1284C37.5397 24.0995 37.0146 24.0802 36.4943 24.0417C35.0923 23.9357 33.7 23.7237 32.3366 23.4058C27.62 22.3121 23.4816 20.1104 19.8731 16.9163C19.5359 16.6176 19.2179 16.3092 18.8951 16.0057C18.818 15.9383 18.7506 15.8419 18.712 15.7456C18.6542 15.6107 18.6831 15.4661 18.7795 15.3602C18.8758 15.2542 19.03 15.2156 19.1649 15.2734C19.2516 15.312 19.3383 15.3505 19.4154 15.3987C22.8601 17.5281 26.6276 19.0843 30.5733 20.0093C31.8981 20.3176 33.2327 20.5585 34.5768 20.7271C36.5087 20.968 38.4551 21.0547 40.3966 20.9873C41.4421 20.9584 42.4779 20.862 43.5185 20.7271C45.937 20.4188 48.3266 19.8744 50.6439 19.1035C51.8628 18.6988 53.0528 18.2412 54.2139 17.7016C54.3873 17.6052 54.5993 17.5763 54.792 17.6245C55.1099 17.7016 55.3027 18.0292 55.2256 18.3423C55.2159 18.3809 55.1967 18.429 55.1774 18.4676C55.1003 18.6121 54.9943 18.7374 54.8594 18.8337C53.7562 19.6961 52.5662 20.4573 51.3088 21.0884C48.9384 22.288 46.4043 23.1456 43.7931 23.6322C42.29 23.902 40.7724 24.0658 39.25 24.1236H39.2404V24.1621H38.0889V24.1284H38.0648ZM55.7363 14.7676C56.3722 14.7868 56.9937 14.8254 57.6103 14.9892C57.7838 15.0374 57.9476 15.0952 58.1114 15.1723C58.333 15.259 58.4775 15.471 58.5064 15.7022C58.545 15.972 58.5546 16.2514 58.5354 16.526C58.4101 18.1689 57.8994 19.7539 57.0563 21.1655C56.748 21.6762 56.3722 22.1339 55.9434 22.5386C55.8567 22.6253 55.7507 22.6927 55.6351 22.7313C55.452 22.7795 55.3364 22.6831 55.3267 22.5C55.3364 22.4037 55.3556 22.3073 55.3942 22.211C55.7314 21.31 56.059 20.414 56.3144 19.4841C56.4685 18.9735 56.5745 18.458 56.642 17.928C56.6612 17.7353 56.6709 17.5426 56.6516 17.3499C56.642 17.0223 56.43 16.7428 56.112 16.6513C55.8133 16.555 55.505 16.4971 55.1918 16.4779C54.3102 16.4393 53.4237 16.4779 52.5517 16.5935L51.3907 16.738C51.2654 16.7477 51.1498 16.738 51.0823 16.6224C51.0149 16.5068 51.0438 16.3912 51.1112 16.2755C51.1883 16.1695 51.2847 16.0732 51.4003 16.0057C52.1085 15.4951 52.9082 15.1915 53.7513 14.9892C54.4017 14.8543 55.0666 14.7868 55.7363 14.7676Z" fill="#666E6D"/>
<path d="M7.37111 6.91023C7.33257 6.40919 7.19767 5.9226 6.99533 5.46973C6.60028 4.6459 5.99807 4.03887 5.07306 3.82689C4.01798 3.59564 3.06406 3.82689 2.20169 4.47246C2.14388 4.53028 2.07644 4.57845 1.99935 4.617C1.98008 4.60736 1.9608 4.59772 1.9608 4.58809C1.9319 4.49174 1.91264 4.39538 1.88373 4.29903C1.80665 4.05814 1.71028 3.97142 1.45012 3.97142C1.16106 3.97142 0.862364 3.98106 0.578118 3.97142C0.356503 3.96179 0.154167 3.99069 0 4.16413C0 7.5269 -5.29269e-06 10.8945 0.00963016 14.2476C0.134891 14.45 0.327598 14.4885 0.549213 14.4789C0.896089 14.4692 1.24296 14.4789 1.58502 14.4789C2.19205 14.4789 2.19206 14.4789 2.19206 13.8815V11.145C2.19206 11.0776 2.16316 11.0005 2.23061 10.9427C2.71238 11.3184 3.29533 11.5497 3.90236 11.6075C4.74546 11.6942 5.51629 11.4823 6.15705 10.9089C6.62919 10.4753 6.97125 9.92131 7.15432 9.30464C7.4193 8.51453 7.43856 7.71961 7.37111 6.91023ZM33.4206 8.32183C34.1384 8.45672 34.8803 8.46636 35.5982 8.35073C36.0221 8.29292 36.422 8.16766 36.7978 7.96531C37.2314 7.71479 37.5445 7.36792 37.6794 6.89096C38.0167 5.68171 37.4963 4.46283 36.2389 4.00996C35.6223 3.80762 34.9719 3.74017 34.3263 3.82689C32.8087 4.00033 31.8211 4.83379 31.3682 6.28393C31.0502 7.27156 31.0888 8.28328 31.3489 9.28055C31.6862 10.5573 32.5293 11.3184 33.806 11.5834C34.5334 11.7472 35.2754 11.7183 36.0028 11.6027C36.3883 11.5352 36.7689 11.4389 37.135 11.2944C37.3566 11.2076 37.4722 11.0727 37.4626 10.8222C37.453 10.591 37.4626 10.3501 37.4626 10.114C37.4626 9.82496 37.347 9.73824 37.0676 9.80569C36.7881 9.87313 36.5183 9.93095 36.2437 9.98876C35.6463 10.114 35.0345 10.114 34.4371 10.008C33.6229 9.84423 33.0929 9.14566 33.1411 8.27847C33.2423 8.29292 33.3386 8.30256 33.4206 8.32183ZM20.2103 11.4726H18.924C18.5868 11.4726 18.5001 11.3763 18.5001 11.0487V4.38575C18.5001 4.30866 18.5097 4.23158 18.529 4.15449C18.5675 4.03887 18.6831 3.97142 18.7988 3.97142H19.9984C20.1718 3.97142 20.2778 4.07741 20.3356 4.24121C20.3838 4.37611 20.4127 4.50137 20.4609 4.6459C20.5572 4.6459 20.615 4.57845 20.6825 4.53991C21.2124 4.21231 21.7665 3.93288 22.3928 3.82207C22.8745 3.72572 23.3515 3.72572 23.8333 3.82207C24.2861 3.91843 24.686 4.18822 24.9462 4.56882C24.9654 4.59772 24.9847 4.617 25.004 4.63627C24.9944 4.6459 25.004 4.6459 25.0136 4.66517C25.2545 4.52064 25.505 4.36647 25.7604 4.23158C26.4349 3.8847 27.1816 3.71126 27.938 3.74981C28.4872 3.77871 28.9834 3.93288 29.3688 4.33757C29.735 4.71335 29.8699 5.17103 29.9084 5.67208C29.9181 5.77807 29.9181 5.88406 29.9181 5.99968V10.9716C29.9181 11.4052 29.8602 11.463 29.4267 11.463H28.2559C28.1789 11.463 28.1018 11.463 28.0247 11.4533C27.9091 11.4437 27.8127 11.3474 27.7935 11.2317C27.7742 11.1257 27.7742 11.0198 27.7742 10.9138V6.467C27.7838 6.28393 27.7645 6.11049 27.7164 5.93705C27.6393 5.63835 27.3695 5.42637 27.066 5.4071C26.4975 5.36856 25.9338 5.48419 25.4135 5.72507C25.3364 5.74434 25.2882 5.82143 25.2979 5.89851V10.9475C25.2979 11.0438 25.2979 11.1306 25.2786 11.2269C25.2786 11.3618 25.1726 11.4582 25.0377 11.4582C24.8932 11.4678 24.7486 11.4678 24.5945 11.4678H23.5779C23.2214 11.4678 23.1443 11.3811 23.1443 11.0246V6.48146C23.1443 6.31765 23.1347 6.14421 23.0962 5.98041C23.0287 5.65281 22.7493 5.42156 22.4265 5.40229C21.8484 5.36374 21.2654 5.47937 20.7451 5.72989C20.668 5.74916 20.6199 5.83588 20.6391 5.91296V11.0294C20.6439 11.3955 20.5669 11.4726 20.2103 11.4726ZM10.493 11.463H9.24521C9.17777 11.463 9.10068 11.463 9.03323 11.4533C8.90797 11.4437 8.81161 11.3377 8.80198 11.2125C8.79234 11.1354 8.79235 11.0583 8.79235 10.9812V4.45319C8.79235 4.00996 8.84052 3.96179 9.28375 3.96179H10.2039C10.4545 3.96179 10.5701 4.04851 10.6375 4.28939C10.705 4.53028 10.7628 4.77116 10.8206 5.0265C10.8881 5.00723 10.9459 4.96869 10.9844 4.91088C11.1578 4.73744 11.3409 4.57364 11.5336 4.41947C12.0347 4.03405 12.6562 3.84134 13.2825 3.88952C13.533 3.89916 13.6197 3.97624 13.639 4.21713C13.6582 4.54473 13.6486 4.88197 13.6486 5.20476C13.6582 5.33965 13.6486 5.46492 13.6293 5.59981C13.5908 5.77325 13.5233 5.8407 13.3499 5.85997C13.215 5.8696 13.0897 5.85997 12.9549 5.85033C12.3093 5.79252 11.6878 5.91778 11.0808 6.12013C10.9459 6.1683 10.9459 6.26466 10.9459 6.37065V10.9812C10.9459 11.0679 10.9459 11.145 10.9362 11.2317C10.9266 11.357 10.8302 11.4533 10.705 11.4533C10.6375 11.463 10.5605 11.463 10.493 11.463ZM16.2935 11.4437H14.959C14.9109 11.4437 14.8723 11.4437 14.8241 11.4341C14.6892 11.4244 14.5736 11.3184 14.564 11.1836C14.5543 11.1065 14.5543 11.0294 14.5543 10.9523C14.564 9.88759 14.564 8.79396 14.564 7.69552V4.28939C14.5736 4.05814 14.6603 3.97142 14.8916 3.96179C15.3926 3.95215 15.8888 3.95215 16.3899 3.96179C16.6115 3.96179 16.679 4.02923 16.6982 4.25085C16.7079 4.33757 16.7079 4.41465 16.7079 4.50137V10.8945C16.7079 11.0005 16.6982 11.1065 16.6886 11.2125C16.679 11.3377 16.5826 11.4244 16.4573 11.4341C16.3995 11.4437 16.3513 11.4437 16.2935 11.4437ZM5.07787 8.89995C5.01042 9.19865 4.85626 9.46844 4.63465 9.66597C4.38413 9.87795 4.07578 10.0032 3.753 10.0032C3.26159 10.0321 2.78465 9.92613 2.35105 9.69488C2.24506 9.6467 2.1776 9.54071 2.18724 9.42509V7.68589C2.18724 7.10776 2.19687 6.53445 2.18724 5.95632C2.1776 5.82143 2.2547 5.7058 2.37996 5.65762C2.90991 5.4071 3.45431 5.29148 4.03243 5.4071C4.43712 5.46492 4.77917 5.72507 4.94298 6.09604C5.08751 6.40437 5.17424 6.74161 5.19351 7.07404C5.25132 7.70034 5.25131 8.31219 5.07787 8.89995ZM33.1845 6.85242C33.2134 6.62117 33.2808 6.39955 33.3675 6.18757C33.6566 5.489 34.2588 5.24812 34.8755 5.28666C35.0489 5.2963 35.2224 5.33484 35.3862 5.40229C35.6367 5.50828 35.8005 5.73953 35.8294 6.00932C35.8583 6.17312 35.8487 6.34656 35.8005 6.51036C35.6849 6.85724 35.4054 7.00177 35.073 7.06922C34.8707 7.11739 34.6587 7.13667 34.4467 7.11739C34.0709 7.11739 33.6903 7.08849 33.3146 7.03068C33.1652 7.00659 33.1652 7.00659 33.1845 6.85242ZM15.6769 0.526749C15.831 0.517113 15.9852 0.546019 16.1297 0.594197C16.65 0.767635 16.915 1.2205 16.8668 1.80345C16.8283 2.30449 16.4525 2.70436 15.9563 2.78144C15.7443 2.81999 15.5227 2.81999 15.3107 2.78144C14.7615 2.67545 14.3616 2.27076 14.4002 1.58183C14.458 0.902531 14.9108 0.526749 15.6769 0.526749Z" fill="#666E6D"/>
</svg>
