<svg width="96" height="96" viewBox="0 0 96 96" fill="none" xmlns="http://www.w3.org/2000/svg">
<path d="M29.4684 49.8603C29.4088 49.8603 29.3473 49.8585 29.2876 49.8547L3.06091 48.218C2.06359 48.1565 1.16693 47.5861 0.689708 46.708C0.212486 45.83 0.218079 44.7693 0.706486 43.8969C0.844433 43.6508 4.14957 37.8235 10.4429 32.74C18.9491 25.8724 28.8365 23.6448 39.039 26.2993C39.8853 26.5193 40.5881 27.1102 40.9516 27.9062C41.3151 28.7022 41.3002 29.6194 40.9125 30.4023L32.0727 48.2441C31.5805 49.2396 30.5664 49.8603 29.4684 49.8603Z" fill="#FE356F"/>
<path d="M50.6098 95.5934C50.1307 95.5934 49.6535 95.476 49.2191 95.2392C48.3411 94.7602 47.7707 93.8672 47.7091 92.868L46.0724 66.6413C45.9997 65.4725 46.6335 64.3745 47.683 63.8563L65.5267 55.0165C66.3115 54.6288 67.2268 54.6138 68.0228 54.9774C68.8188 55.3409 69.4078 56.0437 69.6297 56.89C72.2842 67.0906 70.0566 76.9799 63.189 85.486C58.1074 91.7812 52.2782 95.0845 52.0321 95.2225C51.5903 95.4704 51.1 95.5934 50.6098 95.5934Z" fill="#FE356F"/>
<path d="M90.9313 23.7882L72.1407 4.99754C71.3876 4.24442 70.284 3.9648 69.2624 4.26492C56.6832 7.98577 46.3558 13.8224 38.5674 21.609C36.9437 23.2345 35.3834 24.9943 33.9312 26.8416C29.7089 32.2104 26.182 38.5578 23.4491 45.7087C21.708 50.2665 20.2912 55.1487 19.2361 60.2192C17.3944 69.0777 17.2956 75.4269 17.2918 75.6935C17.2825 76.4765 17.5882 77.2314 18.1437 77.7851C18.6881 78.3294 19.4281 78.637 20.1999 78.637H20.2353C20.5019 78.6333 26.8512 78.5345 35.7096 76.6946C40.7801 75.6395 45.6642 74.2227 50.222 72.4816C57.371 69.7487 63.7203 66.2236 69.0872 62.0013C70.9365 60.5492 72.6962 58.9889 74.3218 57.3633C82.1102 49.5749 87.9468 39.2475 91.6658 26.6683C91.9659 25.6467 91.6844 24.5413 90.9313 23.7882Z" fill="#E1F1FA"/>
<path d="M37.6931 72.3161L23.615 58.238C22.5748 57.1978 20.9232 57.099 19.7674 58.0069C18.8689 58.7115 18.0133 59.4684 17.2247 60.2569C7.42675 70.0512 7.12476 85.2291 7.11544 85.8703C7.10612 86.6533 7.41184 87.4083 7.96736 87.9619C8.51169 88.5081 9.25176 88.8138 10.0217 88.8138C10.0347 88.8138 10.0459 88.8138 10.0589 88.8138C10.7002 88.8064 25.88 88.5025 35.6742 78.7064C36.4627 77.9179 37.2196 77.0641 37.9242 76.1637C38.8321 75.0061 38.7314 73.3544 37.6931 72.3161Z" fill="#FFF261"/>
<path d="M23.6728 45.1289L15.0343 53.7674C14.49 54.3117 14.1824 55.0499 14.1824 55.8217C14.1824 56.5916 14.49 57.3316 15.0343 57.876L38.0509 80.8926C38.5953 81.4369 39.3335 81.7445 40.1052 81.7445C40.877 81.7445 41.6152 81.4388 42.1595 80.8926L50.798 72.2541L23.6728 45.1289Z" fill="#1B3B6B"/>
<path d="M61.3789 43.4164C59.0115 43.4164 56.7838 42.4936 55.1098 40.8196C51.6537 37.3635 51.6537 31.7393 55.1098 28.2813C56.7838 26.6073 59.0115 25.6846 61.3789 25.6846C63.7464 25.6846 65.9741 26.6073 67.6481 28.2813C69.3221 29.9553 70.2448 32.1811 70.2448 34.5505C70.2448 36.9179 69.3221 39.1437 67.6481 40.8196C65.9741 42.4936 63.7464 43.4164 61.3789 43.4164Z" fill="#06CCAB"/>
<path d="M61.3789 46.2584C58.2509 46.2584 55.3111 45.0412 53.1002 42.8303C48.5349 38.265 48.5349 30.8382 53.1002 26.2729C55.3111 24.062 58.2509 22.8447 61.3789 22.8447C64.507 22.8447 67.4467 24.062 69.6576 26.2729C71.8685 28.4838 73.0858 31.4235 73.0858 34.5516C73.0858 37.6796 71.8685 40.6194 69.6576 42.8303C67.4449 45.0393 64.5051 46.2584 61.3789 46.2584ZM61.3789 28.6553C59.8056 28.6553 58.3236 29.2686 57.2107 30.3815C54.9122 32.68 54.9122 36.4195 57.2107 38.7198C58.3236 39.8327 59.8056 40.446 61.3789 40.446C62.9541 40.446 64.4343 39.8327 65.5472 38.7198C66.6601 37.6069 67.2734 36.1268 67.2734 34.5516C67.2734 32.9764 66.6601 31.4962 65.5472 30.3833C64.4343 29.2705 62.9541 28.6553 61.3789 28.6553Z" fill="#1B3B6B"/>
<path d="M94.7417 1.18739C94.188 0.633734 93.4293 0.320557 92.6501 0.33547C92.2195 0.341063 81.9462 0.514429 69.2606 4.2651L91.6621 26.6666C95.4146 13.9829 95.588 3.70958 95.5936 3.27896C95.6029 2.49602 95.2972 1.74104 94.7417 1.18739Z" fill="#FE356F"/>
<path d="M90.9313 23.7879L81.536 14.3926L18.1418 77.7867C18.6862 78.331 19.4262 78.6386 20.1961 78.6386H20.2316C20.4981 78.6349 26.8474 78.5361 35.7059 76.6962C40.7763 75.6411 45.6586 74.2243 50.2164 72.4832C57.3673 69.7504 63.7147 66.2253 69.0816 62.003C70.929 60.5508 72.6906 58.9905 74.3161 57.365C82.1045 49.5765 87.9412 39.2491 91.6602 26.6699C91.9659 25.6464 91.6844 24.541 90.9313 23.7879Z" fill="#CDEBFC"/>
<path d="M37.693 72.3154L30.654 65.2764L7.96729 87.9631C8.51348 88.5074 9.25168 88.815 10.0234 88.815H10.0589C10.7001 88.8075 25.8799 88.5037 35.6741 78.7076C36.4627 77.919 37.2195 77.0652 37.9242 76.1649C38.832 75.0054 38.7332 73.3537 37.693 72.3154Z" fill="#FDBF00"/>
<path d="M37.2363 58.6924L26.5436 69.3851L38.0528 80.8944C38.5972 81.4387 39.3354 81.7463 40.1071 81.7463C40.8789 81.7463 41.6171 81.4387 42.1614 80.8944L50.7999 72.2559L37.2363 58.6924Z" fill="#001035"/>
<path d="M67.648 28.2812L55.1097 40.8195C56.7837 42.4935 59.0095 43.4163 61.3789 43.4163C63.7463 43.4163 65.974 42.4935 67.648 40.8195C69.322 39.1455 70.2448 36.9197 70.2448 34.5504C70.2448 32.1829 69.322 29.9571 67.648 28.2812Z" fill="#1CADB5"/>
<path d="M69.6576 26.2715L65.5471 30.3819C66.66 31.4948 67.2733 32.975 67.2733 34.5502C67.2733 36.1254 66.66 37.6055 65.5471 38.7184C64.4342 39.8313 62.9541 40.4446 61.3789 40.4446C59.8037 40.4446 58.3236 39.8313 57.2107 38.7184L53.1002 42.8289C55.3111 45.0397 58.2509 46.257 61.3789 46.257C64.5069 46.257 67.4467 45.0397 69.6576 42.8289C71.8685 40.618 73.0858 37.6782 73.0858 34.5502C73.0858 31.4221 71.8685 28.4842 69.6576 26.2715Z" fill="#001035"/>
<path d="M94.7415 1.18555L80.4622 15.4649L91.6638 26.6666C95.4145 13.9829 95.5879 3.7096 95.5935 3.27899C95.6028 2.49604 95.297 1.74106 94.7415 1.18555Z" fill="#FF193D"/>
</svg>
