<svg width="75" height="96" viewBox="0 0 75 96" fill="none" xmlns="http://www.w3.org/2000/svg">
<path d="M42.8727 93.5198L58.9356 84.1906C68.4013 78.6922 74.234 68.5292 74.234 57.5323V17.7066C74.234 15.6544 72.6426 13.9498 70.6065 13.8463C53.3951 12.9644 44.047 5.91109 39.8737 1.57004C38.3815 0.0170189 35.8934 0.0170189 34.4012 1.57004C30.2279 5.91294 20.8816 12.9644 3.66841 13.8463C1.63046 13.9498 0.0390625 15.6563 0.0390625 17.7066V57.5305C0.0390625 68.5273 5.86991 78.6903 15.3375 84.1888L31.4003 93.518C34.9488 95.5813 39.3224 95.5813 42.8727 93.5198Z" fill="#E49542"/>
<path d="M37.1357 87.3709C36.4649 87.3709 35.8034 87.1934 35.2227 86.8551L19.1598 77.5259C12.083 73.4159 7.68555 65.7544 7.68555 57.5326V22.9724C7.68555 22.0055 8.39855 21.1864 9.35229 21.0644C22.1 19.4504 30.6727 14.6822 35.9541 10.4909C36.6468 9.94183 37.6226 9.94183 38.3154 10.4909C43.5968 14.6822 52.1676 19.4504 64.9153 21.0644C65.8691 21.1846 66.5821 22.0055 66.5821 22.9724V57.5326C66.5821 65.7544 62.1864 73.4159 55.1078 77.5259L39.045 86.8551C38.468 87.1916 37.8064 87.3709 37.1357 87.3709Z" fill="#FFE07D"/>
<path d="M19.5439 73.3199C17.5225 73.3199 15.5305 73.1942 13.5734 72.9557C15.1666 74.7435 17.0428 76.2947 19.1616 77.526L35.2245 86.8552C35.8052 87.1917 36.4668 87.371 37.1375 87.371C37.8082 87.371 38.4698 87.1935 39.0505 86.8552L55.1134 77.526C62.1901 73.416 66.5876 65.7545 66.5876 57.5327V38.2217C60.4719 58.5311 41.7261 73.3199 19.5439 73.3199Z" fill="#FFD064"/>
<path d="M31.3985 66.0411C29.9302 66.0411 28.4619 65.4772 27.3428 64.3513L15.8685 52.8071C13.6285 50.5534 13.6285 46.8983 15.8685 44.6446C18.1086 42.3908 21.7417 42.3908 23.9817 44.6446L31.3985 52.1064L50.2895 33.1005C52.5296 30.8467 56.1626 30.8467 58.4027 33.1005C60.6428 35.3542 60.6428 39.0093 58.4027 41.263L35.456 64.3494C34.335 65.4772 32.8668 66.0411 31.3985 66.0411Z" fill="#95D6A4"/>
<path d="M58.4026 33.0987C57.822 32.5144 57.1475 32.0837 56.4272 31.8008C57.2266 33.8696 56.7984 36.3064 55.1371 37.9759L32.1905 61.0659C31.0695 62.1937 29.6012 62.7558 28.1348 62.7558C26.6683 62.7558 25.1982 62.1919 24.0791 61.0659L27.3428 64.3495C28.4637 65.4772 29.932 66.0393 31.3984 66.0393C32.8649 66.0393 34.335 65.4754 35.4541 64.3495L58.4026 41.2613C60.6446 39.0075 60.6446 35.3542 58.4026 33.0987Z" fill="#78C2A4"/>
</svg>
