<svg width="105" height="82" viewBox="0 0 105 82" fill="none" xmlns="http://www.w3.org/2000/svg">
<path d="M104.945 56.4157H67.66V53.3428C67.66 38.0932 55.2529 25.6861 40.0033 25.6861C24.7537 25.6861 12.3466 38.0932 12.3466 53.3428V56.4157H0.0546875V53.3428C0.0546875 39.3344 5.51 26.1638 15.4155 16.2583C25.321 6.35278 38.4916 0.897461 52.5 0.897461C66.5084 0.897461 79.679 6.35278 89.5845 16.2583C99.49 26.1638 104.945 39.3344 104.945 53.3428V56.4157Z" fill="#FFCE2E"/>
<path d="M89.5845 16.2583C79.679 6.35278 66.5084 0.897461 52.5 0.897461C38.4916 0.897461 25.3211 6.35278 15.4155 16.2583C14.6873 16.9857 13.9871 17.734 13.3069 18.4958L24.9586 30.1475C29.2919 27.3274 34.4591 25.6861 40.0033 25.6861C52.6945 25.6861 63.4155 34.28 66.6557 45.954L104.895 51.1021C104.345 37.9347 98.9602 25.634 89.5845 16.2583Z" fill="#FF9900"/>
<path d="M67.66 53.3428V56.4157H104.945V53.3428C104.945 39.3344 99.49 26.1638 89.5845 16.2583C79.679 6.35278 66.5084 0.897461 52.5 0.897461V28.675C61.4876 33.2468 67.66 42.5874 67.66 53.3428Z" fill="#FE356F"/>
<path d="M91.8724 16.2627L44.7015 59.3002C42.9754 60.8751 42.913 63.572 44.5655 65.2237L56.0851 76.7433C57.7392 78.3983 60.4417 78.3334 62.015 76.6009L104.945 29.3324V16.2627H91.8724Z" fill="#CCF2EE"/>
<path d="M56.0843 76.7433C57.7393 78.3983 60.4417 78.3334 62.015 76.6009L104.945 29.3324V16.2627L50.3201 70.9791L56.0843 76.7433Z" fill="#01BDAA"/>
<path d="M52.4992 81.1031C49.2158 81.1031 46.1284 79.8243 43.8069 77.5028C39.015 72.71 39.015 64.9116 43.8069 60.1189C46.1284 57.7974 49.2158 56.5186 52.4992 56.5186C55.7819 56.5186 58.8692 57.7974 61.1908 60.1189C65.9835 64.9116 65.9835 72.7092 61.1908 77.5028C58.8692 79.8243 55.7819 81.1031 52.4992 81.1031Z" fill="#410182"/>
</svg>
