<?xml version="1.0" encoding="UTF-8"?>
<svg xmlns="http://www.w3.org/2000/svg" xmlns:xlink="http://www.w3.org/1999/xlink" width="24px" height="24px" viewBox="0 0 24 24" version="1.1">
<g id="surface1">
<path style=" stroke:none;fill-rule:evenodd;fill:rgb(5.882353%,5.882353%,5.882353%);fill-opacity:1;" d="M 19.78125 3.917969 C 20.132812 3.835938 20.375 3.753906 20.574219 3.667969 C 20.851562 3.550781 21.082031 3.40625 21.449219 3.164062 C 21.757812 2.960938 22.148438 2.945312 22.472656 3.117188 C 22.796875 3.292969 23 3.632812 23 4 C 23 5.078125 22.863281 5.96875 22.554688 6.746094 C 22.300781 7.363281 21.9375 7.933594 21.480469 8.421875 C 21.296875 11.78125 20.320312 14.425781 18.835938 16.425781 C 17.289062 18.5 15.238281 19.828125 13.074219 20.570312 C 10.917969 21.3125 8.640625 21.476562 6.597656 21.226562 C 4.566406 20.976562 2.691406 20.304688 1.386719 19.289062 C 1.027344 19.011719 0.902344 18.527344 1.078125 18.109375 C 1.253906 17.691406 1.691406 17.445312 2.140625 17.507812 C 3.425781 17.695312 4.664062 17.402344 5.683594 16.984375 C 5.484375 16.875 5.292969 16.757812 5.117188 16.636719 C 4.191406 15.992188 3.441406 15.121094 3.105469 14.445312 C 2.890625 14.015625 3.011719 13.488281 3.398438 13.199219 C 2.046875 12.082031 1.5 10.535156 1.5 9.5 C 1.5 9.054688 1.796875 8.664062 2.222656 8.539062 C 2.125 8.25 2.042969 7.953125 1.984375 7.652344 C 1.71875 6.367188 1.742188 4.914062 2.03125 3.757812 C 2.128906 3.363281 2.457031 3.066406 2.859375 3.011719 C 3.265625 2.953125 3.664062 3.148438 3.867188 3.5 C 4.945312 5.367188 6.929688 6.511719 8.78125 7.1875 C 9.652344 7.503906 10.457031 7.707031 11.058594 7.832031 C 11.191406 6.609375 11.53125 5.605469 12.054688 4.804688 C 12.671875 3.839844 13.632812 3.140625 14.738281 2.847656 C 16.523438 2.367188 18.5 2.914062 19.78125 3.917969 Z M 10.746094 9.808594 C 9.847656 9.625 8.957031 9.378906 8.09375 9.0625 C 6.738281 8.566406 5.160156 7.792969 3.839844 6.597656 C 3.863281 6.816406 3.898438 7.035156 3.941406 7.246094 C 4.164062 8.320312 4.574219 8.917969 4.945312 9.105469 C 5.402344 9.332031 5.613281 9.867188 5.4375 10.347656 C 5.199219 10.996094 4.566406 11.046875 3.996094 10.90625 C 4.457031 11.59375 5.285156 12.28125 6.664062 12.515625 C 7.140625 12.59375 7.488281 13.003906 7.496094 13.484375 C 7.503906 13.964844 7.167969 14.382812 6.695312 14.480469 L 5.824219 14.65625 C 5.960938 14.769531 6.101562 14.882812 6.257812 14.988281 C 6.953125 15.472656 7.652344 15.679688 8.257812 15.53125 C 8.710938 15.417969 9.179688 15.632812 9.390625 16.046875 C 9.601562 16.460938 9.496094 16.96875 9.140625 17.269531 C 8.496094 17.804688 7.742188 18.234375 6.988281 18.589844 C 6.636719 18.757812 6.242188 18.925781 5.8125 19.070312 C 6.140625 19.140625 6.484375 19.199219 6.839844 19.242188 C 8.609375 19.460938 10.582031 19.3125 12.425781 18.679688 C 14.261719 18.046875 15.960938 16.9375 17.230469 15.230469 C 18.496094 13.527344 19.382812 11.167969 19.5 7.964844 C 19.511719 7.710938 19.613281 7.472656 19.792969 7.292969 C 20.242188 6.84375 20.613281 6.328125 20.796875 5.714844 C 20.476562 5.8125 20.117188 5.898438 19.6875 5.980469 C 19.363281 6.042969 19.027344 5.941406 18.792969 5.707031 C 18.027344 4.941406 16.515625 4.441406 15.261719 4.777344 C 14.625 4.945312 14.078125 5.34375 13.726562 5.898438 C 13.316406 6.53125 13 7.511719 13 9 C 13 9.285156 12.878906 9.554688 12.671875 9.742188 C 12.171875 10.191406 11.335938 9.925781 10.746094 9.808594 Z M 10.746094 9.808594 "/>
</g>
</svg>
