<svg width="106" height="24" viewBox="0 0 106 24" fill="none" xmlns="http://www.w3.org/2000/svg">
<path d="M28.8832 0.504194C26.9144 0.258099 24.9336 0.192074 22.9589 0.102039C22.7848 0.0960371 22.5807 0.204079 22.4427 0C18.6492 0 14.8557 0 11.0683 0C10.9302 0.204079 10.7201 0.0960371 10.5521 0.102039C8.61333 0.198076 6.66858 0.258099 4.73584 0.504194C2.3049 0.816315 0.936358 2.11281 0.522199 4.53175C0.300113 5.82225 0.210077 7.12475 0.108037 8.42725C0.0960327 8.58331 0.198076 8.77539 0 8.89543C0 10.8282 0 12.7549 0 14.6877C0.192074 14.8077 0.0960327 14.9998 0.108037 15.1558C0.222081 16.6324 0.312131 18.109 0.630254 19.5615C1.03241 21.3923 2.3109 22.6227 4.15361 22.9589C4.99994 23.1149 5.85826 23.205 6.71659 23.259C10.4981 23.5111 14.2915 23.6131 18.079 23.5651C21.7824 23.5231 25.4858 23.4871 29.1713 23.0489C31.4101 22.7848 32.7906 21.4823 33.2048 19.2674C33.4569 17.9109 33.571 16.5364 33.643 15.1619C33.8291 11.6805 33.811 8.20517 33.2888 4.74783C32.8927 2.10681 31.5422 0.834321 28.8832 0.504194ZM13.5592 16.8125C13.5592 13.4332 13.5592 10.1439 13.5592 6.76461C16.4764 8.43926 19.3455 10.0899 22.2986 11.7885C19.3575 13.4752 16.4884 15.1318 13.5592 16.8125Z" fill="#666E6D"/>
<path d="M100.581 15.5825C102.351 15.5945 104.128 15.6065 105.899 15.6186C105.899 14.0339 105.899 12.4493 105.899 10.8587C105.707 10.5646 105.749 10.2105 105.689 9.89234C105.353 8.12166 104.47 7.1853 102.76 6.87318C102.285 6.78314 101.799 6.78914 101.319 6.81315C99.1103 6.90919 97.9098 7.86956 97.4236 10.0064C96.8714 12.4373 97.1055 14.9103 97.1715 17.3652C97.1835 17.8934 97.3035 18.4216 97.4296 18.9378C97.7777 20.3544 98.492 21.4828 99.9926 21.891C100.971 22.1551 101.961 22.1551 102.958 21.939C104.518 21.5969 105.461 20.6605 105.761 19.0819C105.797 18.8898 105.695 18.6617 105.893 18.5117C105.893 18.2356 105.893 17.9595 105.893 17.6834C105.779 17.6053 105.725 17.4733 105.533 17.4673C104.776 17.4493 104.02 17.4132 103.264 17.3472C102.94 17.3172 102.892 17.4553 102.898 17.7254C102.91 18.1755 102.838 18.6197 102.7 19.0459C102.52 19.6041 102.153 19.8622 101.583 19.8502C101.019 19.8442 100.647 19.5741 100.515 18.9919C100.281 17.9415 100.335 16.867 100.317 15.8046C100.323 15.6186 100.419 15.5765 100.581 15.5825ZM100.323 13.3377C100.329 12.8575 100.323 12.3773 100.323 11.9631C100.377 11.2429 100.347 10.5826 100.515 9.94636C100.665 9.35814 100.953 9.10604 101.457 9.10004C102.057 9.08803 102.454 9.35213 102.58 9.94636C102.82 11.0988 102.748 12.2753 102.772 13.4397C102.778 13.6438 102.652 13.6498 102.502 13.6498C101.865 13.6498 101.229 13.6378 100.593 13.6558C100.341 13.6618 100.317 13.5357 100.323 13.3377Z" fill="#666E6D"/>
<path d="M95.0466 8.58946C94.4944 7.17892 93.2459 6.53667 91.7694 6.89681C90.797 7.1369 90.1007 7.73713 89.4945 8.6795C89.4945 6.18854 89.4825 3.84763 89.5065 1.50673C89.5125 1.06856 89.4405 0.870483 88.9363 0.906496C88.234 0.960517 87.5257 0.942511 86.8174 0.912499C86.3853 0.88849 86.2412 0.978524 86.2472 1.45871C86.2713 4.97607 86.2592 8.48742 86.2592 12.0048C86.2592 15.156 86.2652 18.3132 86.2532 21.4644C86.2532 21.8186 86.3313 21.9566 86.7034 21.9266C87.0995 21.8906 87.4957 21.9206 87.8919 21.9206C89.0023 21.9206 88.9963 21.9206 89.2844 20.8222C89.3084 20.7321 89.3504 20.6421 89.3985 20.5161C89.4945 20.6541 89.5605 20.7502 89.6325 20.8462C90.4188 21.8666 91.4873 22.2447 92.7237 22.1247C93.8522 22.0166 94.5304 21.2904 94.9506 20.288C95.2207 19.6517 95.3768 18.9795 95.4548 18.2952C95.7369 15.9423 95.6409 13.5834 95.5328 11.2245C95.4848 10.3241 95.3768 9.43579 95.0466 8.58946ZM92.2436 14.6758C92.2316 15.8643 92.2375 17.0527 92.0455 18.2232C92.0035 18.4753 91.9314 18.7274 91.8354 18.9615C91.5833 19.5737 91.1211 19.7958 90.4669 19.6637C89.8606 19.5377 89.5365 19.1355 89.5365 18.5113C89.5365 15.9663 89.5425 13.4213 89.5365 10.8703C89.5365 10.2041 89.8546 9.7179 90.3888 9.38177C91.0191 8.97961 91.6733 9.2077 91.9254 9.91597C92.1835 10.6543 92.2195 11.4346 92.2436 12.2029C92.2616 13.0252 92.2436 13.8535 92.2436 14.6758Z" fill="#666E6D"/>
<path d="M66.8177 7.12473C65.9714 7.14274 65.1311 7.15474 64.2848 7.12473C63.9006 7.11273 63.7986 7.20876 63.7986 7.59891C63.8166 11.2003 63.8106 14.8017 63.8106 18.3971C63.8106 19.1954 63.2224 19.7776 62.4241 19.7836C62.0039 19.7836 61.7458 19.5975 61.6257 19.1954C61.4697 18.6912 61.4817 18.175 61.4817 17.6588C61.4757 14.2975 61.4757 10.9422 61.4877 7.58091C61.4877 7.22677 61.4097 7.10672 61.0375 7.11873C60.2272 7.14874 59.4169 7.15474 58.6066 7.11873C58.1864 7.10072 58.1084 7.23877 58.1084 7.62892C58.1264 11.0923 58.1204 14.5556 58.1144 18.0189C58.1144 18.5531 58.1444 19.0813 58.2164 19.6155C58.4805 21.5603 59.9391 22.5507 61.8538 22.0825C62.9283 21.8184 63.6485 21.1221 64.2427 20.0477C64.3448 20.678 64.4348 21.1461 64.4948 21.6143C64.5248 21.8424 64.5849 21.9384 64.837 21.9324C65.5092 21.9144 66.1815 21.9084 66.8538 21.9324C67.1479 21.9444 67.1839 21.8124 67.1839 21.5663C67.1779 16.8785 67.1779 12.1967 67.1839 7.50888C67.1959 7.21477 67.1178 7.11873 66.8177 7.12473Z" fill="#666E6D"/>
<path d="M83.8766 7.12498C83.0483 7.14299 82.22 7.161 81.3976 7.11898C80.9655 7.10097 80.8994 7.25703 80.8994 7.64118C80.9114 11.2426 80.9055 14.844 80.9055 18.4454C80.9055 19.1656 80.4073 19.6998 79.681 19.7719C79.1168 19.8259 78.8587 19.6398 78.6966 19.0936C78.5706 18.6554 78.5886 18.2053 78.5886 17.7611C78.5886 14.3638 78.5826 10.9725 78.5946 7.57516C78.5946 7.21502 78.5045 7.10698 78.1384 7.11898C77.3281 7.14899 76.5178 7.14899 75.7075 7.11898C75.3053 7.10097 75.1912 7.21502 75.1972 7.62318C75.2153 10.5883 75.2033 13.5535 75.2093 16.5186C75.2093 17.485 75.1913 18.4454 75.2933 19.4117C75.5154 21.5786 77.136 22.665 79.2128 22.0107C80.1732 21.7106 80.8094 21.0263 81.3496 20.048C81.4517 20.6602 81.5537 21.1284 81.5957 21.5966C81.6197 21.8847 81.7398 21.9267 81.9859 21.9207C82.6221 21.9087 83.2644 21.8967 83.9006 21.9267C84.2307 21.9387 84.2968 21.8307 84.2968 21.5185C84.2848 16.8487 84.2848 12.1789 84.2968 7.50913C84.2848 7.179 84.1767 7.11898 83.8766 7.12498Z" fill="#666E6D"/>
<path d="M52.5502 6.87883C49.8672 6.62673 48.0065 7.55709 47.4482 10.3962C47.0221 12.563 47.1481 14.7539 47.2141 16.9327C47.2322 17.605 47.3222 18.2712 47.4662 18.9255C47.8084 20.4681 48.5947 21.6025 50.2213 21.9867C50.7435 22.1067 51.2777 22.1607 51.8059 22.1607C54.3269 22.1847 55.6594 21.0863 56.1576 18.6074C56.4277 17.2628 56.3977 15.9003 56.4217 14.8799C56.4277 13.3553 56.4217 12.1669 56.2476 10.9844C55.8215 8.15132 54.639 7.0769 52.5502 6.87883ZM52.9584 18.1932C52.9284 18.5533 52.8623 18.9135 52.7123 19.2376C52.5322 19.6277 52.2381 19.8738 51.7879 19.8558C51.3497 19.8378 51.0496 19.6037 50.8876 19.2016C50.6415 18.6014 50.6115 17.9591 50.5935 17.3289C50.5634 16.3805 50.5874 15.4381 50.5874 14.4898C50.6115 13.2533 50.5094 12.0108 50.6655 10.7743C50.7075 10.4322 50.7675 10.0961 50.8996 9.77795C51.0616 9.36979 51.3737 9.1417 51.8119 9.1417C52.2501 9.1417 52.5622 9.36379 52.7303 9.76594C52.9704 10.3302 53.0244 10.9424 53.0304 11.5366C53.0364 13.7515 53.1324 15.9723 52.9584 18.1932Z" fill="#666E6D"/>
<path d="M44.9993 1.65011C44.7412 1.64411 44.7052 1.77015 44.6571 1.98023C44.297 3.63687 43.9069 5.29351 43.5467 6.95616C43.2046 8.53476 42.8865 10.1194 42.5503 11.722C42.5263 11.668 42.5083 11.638 42.5023 11.6019C41.9501 8.38471 41.1758 5.21548 40.5215 2.02225C40.4855 1.85419 40.4975 1.65011 40.2034 1.65011C39.189 1.66211 38.1747 1.65611 37.1302 1.65611C37.1543 1.77015 37.1662 1.85419 37.1903 1.93222C38.1926 5.55161 39.159 9.18301 40.2094 12.7904C40.7196 14.5371 41.0497 16.2838 40.9417 18.1085C40.8757 19.2069 40.9537 20.3113 40.9177 21.4157C40.9057 21.8359 41.0438 21.9319 41.4399 21.9199C42.1962 21.8899 42.9585 21.8839 43.7148 21.9199C44.1649 21.9439 44.249 21.7819 44.243 21.3677C44.219 19.489 44.231 17.6103 44.231 15.7375C44.231 15.4975 44.237 15.2574 44.303 15.0233C45.2394 11.704 46.1697 8.38471 47.1001 5.06543C47.4122 3.94299 47.7303 2.82656 48.0545 1.66211C46.9921 1.65611 45.9957 1.66211 44.9993 1.65011Z" fill="#666E6D"/>
<path d="M76.2354 4.0153C76.2174 3.36105 76.2114 2.7068 76.2354 2.05255C76.2474 1.74043 76.1694 1.65039 75.8393 1.65039C72.8081 1.6624 69.771 1.6624 66.7398 1.65039C66.4037 1.65039 66.3376 1.75843 66.3496 2.06455C66.3676 2.7008 66.3797 3.34304 66.3496 3.97929C66.3316 4.32142 66.4637 4.37544 66.7638 4.36344C67.5921 4.34543 68.4204 4.37544 69.2428 4.34543C69.6029 4.33343 69.6749 4.45947 69.6689 4.7836C69.6509 5.69595 69.6629 6.6083 69.6629 7.52666C69.6629 12.1484 69.6689 16.7642 69.6509 21.386C69.6509 21.8182 69.765 21.9442 70.1911 21.9262C70.9294 21.8902 71.6737 21.8902 72.412 21.9262C72.8141 21.9442 72.9282 21.8362 72.9282 21.422C72.9102 18.667 72.9162 15.9059 72.9162 13.1508C72.9162 10.4078 72.9282 7.67071 72.9042 4.92766C72.8982 4.42946 73.0542 4.33343 73.5044 4.35143C74.2967 4.38745 75.089 4.35143 75.8813 4.36944C76.1514 4.36344 76.2414 4.29141 76.2354 4.0153Z" fill="#666E6D"/>
</svg>
