<?xml version="1.0" encoding="UTF-8"?>
<svg xmlns="http://www.w3.org/2000/svg" xmlns:xlink="http://www.w3.org/1999/xlink" width="80px" height="80px" viewBox="0 0 80 80" version="1.1">
<defs>
<filter id="alpha" filterUnits="objectBoundingBox" x="0%" y="0%" width="100%" height="100%">
  <feColorMatrix type="matrix" in="SourceGraphic" values="0 0 0 0 1 0 0 0 0 1 0 0 0 0 1 0 0 0 1 0"/>
</filter>
<mask id="mask0">
  <g filter="url(#alpha)">
<rect x="0" y="0" width="80" height="80" style="fill:rgb(0%,0%,0%);fill-opacity:0.301961;stroke:none;"/>
  </g>
</mask>
<clipPath id="clip1">
  <rect x="0" y="0" width="80" height="80"/>
</clipPath>
<g id="surface5" clip-path="url(#clip1)">
<path style=" stroke:none;fill-rule:nonzero;fill:rgb(20.784314%,42.352941%,71.372549%);fill-opacity:1;" d="M 70 40 C 70 56.570312 56.570312 70 40 70 C 23.429688 70 10 56.570312 10 40 C 10 23.429688 23.429688 10 40 10 C 56.570312 10 70 23.429688 70 40 Z M 70 40 "/>
</g>
<mask id="mask1">
  <g filter="url(#alpha)">
<rect x="0" y="0" width="80" height="80" style="fill:rgb(0%,0%,0%);fill-opacity:0.101961;stroke:none;"/>
  </g>
</mask>
<clipPath id="clip2">
  <rect x="0" y="0" width="80" height="80"/>
</clipPath>
<g id="surface8" clip-path="url(#clip2)">
<path style=" stroke:none;fill-rule:nonzero;fill:rgb(22.352941%,23.529412%,32.941176%);fill-opacity:1;" d="M 40 64.53125 C 36.734375 64.53125 33.914062 62.234375 33.261719 59.03125 C 33.171875 59.484375 33.125 59.945312 33.125 60.40625 C 33.125 64.203125 36.203125 67.28125 40 67.28125 C 43.796875 67.28125 46.875 64.203125 46.875 60.40625 C 46.875 59.945312 46.828125 59.484375 46.738281 59.03125 C 46.085938 62.234375 43.265625 64.53125 40 64.53125 Z M 40 64.53125 "/>
</g>
<mask id="mask2">
  <g filter="url(#alpha)">
<rect x="0" y="0" width="80" height="80" style="fill:rgb(0%,0%,0%);fill-opacity:0.101961;stroke:none;"/>
  </g>
</mask>
<clipPath id="clip3">
  <rect x="0" y="0" width="80" height="80"/>
</clipPath>
<g id="surface11" clip-path="url(#clip3)">
<path style=" stroke:none;fill-rule:nonzero;fill:rgb(22.352941%,23.529412%,32.941176%);fill-opacity:1;" d="M 45.488281 63.1875 L 40 66.085938 L 34.511719 63.1875 C 34.351562 63.125 34.175781 63.136719 34.027344 63.222656 C 33.878906 63.308594 33.777344 63.457031 33.75 63.625 L 33.75 68.875 C 33.777344 69.042969 33.878906 69.191406 34.027344 69.277344 C 34.175781 69.363281 34.351562 69.375 34.511719 69.3125 L 40 66.414062 L 45.488281 69.3125 C 45.648438 69.375 45.824219 69.363281 45.972656 69.277344 C 46.121094 69.191406 46.222656 69.042969 46.25 68.875 L 46.25 63.625 C 46.222656 63.457031 46.121094 63.308594 45.972656 63.222656 C 45.824219 63.136719 45.648438 63.125 45.488281 63.1875 Z M 45.488281 63.1875 "/>
</g>
<mask id="mask3">
  <g filter="url(#alpha)">
<rect x="0" y="0" width="80" height="80" style="fill:rgb(0%,0%,0%);fill-opacity:0.101961;stroke:none;"/>
  </g>
</mask>
<clipPath id="clip4">
  <rect x="0" y="0" width="80" height="80"/>
</clipPath>
<g id="surface14" clip-path="url(#clip4)">
<path style=" stroke:none;fill-rule:nonzero;fill:rgb(20.784314%,42.352941%,71.372549%);fill-opacity:1;" d="M 50.519531 11.613281 C 50.261719 18.273438 44.332031 23.605469 37.03125 23.605469 C 35.042969 23.605469 33.074219 23.191406 31.25 22.394531 C 33.507812 24.789062 36.664062 26.136719 39.957031 26.105469 C 46.25 26.105469 51.367188 21.398438 51.367188 15.625 C 51.371094 14.242188 51.082031 12.875 50.519531 11.613281 Z M 50.519531 11.613281 "/>
</g>
</defs>
<g id="surface1">
<path style=" stroke:none;fill-rule:nonzero;fill:rgb(29.411765%,75.686275%,56.470588%);fill-opacity:1;" d="M 77.5 40 C 77.5 60.710938 60.710938 77.5 40 77.5 C 19.289062 77.5 2.5 60.710938 2.5 40 C 2.5 19.289062 19.289062 2.5 40 2.5 C 60.710938 2.5 77.5 19.289062 77.5 40 Z M 77.5 40 "/>
<use xlink:href="#surface5" mask="url(#mask0)"/>
<path style=" stroke:none;fill-rule:nonzero;fill:rgb(100%,100%,100%);fill-opacity:1;" d="M 25.476562 37.105469 C 25.476562 40.558594 22.675781 43.355469 19.226562 43.355469 C 15.773438 43.355469 12.976562 40.558594 12.976562 37.105469 C 12.976562 33.65625 15.773438 30.855469 19.226562 30.855469 C 22.675781 30.855469 25.476562 33.65625 25.476562 37.105469 Z M 25.476562 37.105469 "/>
<path style=" stroke:none;fill-rule:nonzero;fill:rgb(100%,100%,100%);fill-opacity:1;" d="M 67.023438 37.105469 C 67.023438 40.558594 64.226562 43.355469 60.773438 43.355469 C 57.324219 43.355469 54.523438 40.558594 54.523438 37.105469 C 54.523438 33.65625 57.324219 30.855469 60.773438 30.855469 C 64.226562 30.855469 67.023438 33.65625 67.023438 37.105469 Z M 67.023438 37.105469 "/>
<path style=" stroke:none;fill-rule:nonzero;fill:rgb(100%,100%,100%);fill-opacity:1;" d="M 28.242188 26.105469 C 28.242188 30.398438 24.765625 33.875 20.476562 33.875 C 16.183594 33.875 12.707031 30.398438 12.707031 26.105469 C 12.707031 21.816406 16.183594 18.335938 20.476562 18.335938 C 24.765625 18.335938 28.242188 21.816406 28.242188 26.105469 Z M 28.242188 26.105469 "/>
<path style=" stroke:none;fill-rule:nonzero;fill:rgb(100%,100%,100%);fill-opacity:1;" d="M 67.292969 26.105469 C 67.292969 30.398438 63.816406 33.875 59.523438 33.875 C 55.234375 33.875 51.757812 30.398438 51.757812 26.105469 C 51.757812 21.816406 55.234375 18.335938 59.523438 18.335938 C 63.816406 18.335938 67.292969 21.816406 67.292969 26.105469 Z M 67.292969 26.105469 "/>
<path style=" stroke:none;fill-rule:nonzero;fill:rgb(100%,100%,100%);fill-opacity:1;" d="M 35.582031 15.835938 C 35.582031 20.128906 32.101562 23.605469 27.8125 23.605469 C 23.523438 23.605469 20.042969 20.128906 20.042969 15.835938 C 20.042969 11.546875 23.523438 8.070312 27.8125 8.070312 C 32.101562 8.070312 35.582031 11.546875 35.582031 15.835938 Z M 35.582031 15.835938 "/>
<path style=" stroke:none;fill-rule:nonzero;fill:rgb(100%,100%,100%);fill-opacity:1;" d="M 59.957031 15.835938 C 59.957031 20.128906 56.476562 23.605469 52.1875 23.605469 C 47.898438 23.605469 44.417969 20.128906 44.417969 15.835938 C 44.417969 11.546875 47.898438 8.070312 52.1875 8.070312 C 56.476562 8.070312 59.957031 11.546875 59.957031 15.835938 Z M 59.957031 15.835938 "/>
<path style=" stroke:none;fill-rule:nonzero;fill:rgb(98.431373%,75.294118%,66.666667%);fill-opacity:1;" d="M 62.03125 40.269531 C 62.03125 43.007812 59.8125 45.226562 57.074219 45.226562 C 54.335938 45.226562 52.117188 43.007812 52.117188 40.269531 C 52.117188 37.53125 54.335938 35.3125 57.074219 35.3125 C 59.8125 35.3125 62.03125 37.53125 62.03125 40.269531 Z M 62.03125 40.269531 "/>
<path style=" stroke:none;fill-rule:nonzero;fill:rgb(100%,100%,100%);fill-opacity:1;" d="M 40 77.5625 C 49.226562 77.574219 58.132812 74.171875 65 68.011719 L 63.507812 64.460938 C 62.4375 61.960938 59.617188 60.3125 56.449219 60.3125 L 23.554688 60.3125 C 20.386719 60.3125 17.570312 61.976562 16.5 64.460938 L 15 68.011719 C 21.867188 74.171875 30.773438 77.574219 40 77.5625 Z M 40 77.5625 "/>
<path style=" stroke:none;fill-rule:nonzero;fill:rgb(31.764706%,33.333333%,43.921569%);fill-opacity:1;" d="M 49.375 60.3125 L 30.53125 60.3125 C 30.53125 65.515625 34.75 69.734375 39.953125 69.734375 C 45.15625 69.734375 49.375 65.515625 49.375 60.3125 Z M 49.375 60.3125 "/>
<path style="fill:none;stroke-width:20;stroke-linecap:round;stroke-linejoin:round;stroke:rgb(98.431373%,75.294118%,66.666667%);stroke-opacity:1;stroke-miterlimit:4;" d="M 64 84.75 L 64 98.5 " transform="matrix(0.625,0,0,0.625,0,0)"/>
<path style=" stroke:none;fill-rule:nonzero;fill:rgb(22.352941%,23.529412%,32.941176%);fill-opacity:1;" d="M 40 70.625 L 46.039062 72.820312 C 46.230469 72.886719 46.441406 72.859375 46.609375 72.742188 C 46.777344 72.625 46.875 72.433594 46.875 72.230469 L 46.875 65.269531 C 46.875 65.066406 46.777344 64.875 46.609375 64.757812 C 46.441406 64.640625 46.230469 64.613281 46.039062 64.679688 L 40 66.875 Z M 40 70.625 L 33.960938 72.820312 C 33.769531 72.886719 33.558594 72.859375 33.390625 72.742188 C 33.222656 72.625 33.125 72.433594 33.125 72.230469 L 33.125 65.269531 C 33.125 65.066406 33.222656 64.875 33.390625 64.757812 C 33.558594 64.640625 33.769531 64.613281 33.960938 64.679688 L 40 66.875 Z M 40 70.625 "/>
<path style=" stroke:none;fill-rule:nonzero;fill:rgb(22.352941%,23.529412%,32.941176%);fill-opacity:1;" d="M 43.125 68.75 C 43.125 70.476562 41.726562 71.875 40 71.875 C 38.273438 71.875 36.875 70.476562 36.875 68.75 C 36.875 67.023438 38.273438 65.625 40 65.625 C 41.726562 65.625 43.125 67.023438 43.125 68.75 Z M 43.125 68.75 "/>
<path style=" stroke:none;fill-rule:nonzero;fill:rgb(100%,100%,100%);fill-opacity:1;" d="M 40 64.53125 C 36.734375 64.53125 33.914062 62.234375 33.261719 59.03125 C 33.171875 59.484375 33.125 59.945312 33.125 60.40625 C 33.125 64.203125 36.203125 67.28125 40 67.28125 C 43.796875 67.28125 46.875 64.203125 46.875 60.40625 C 46.875 59.945312 46.828125 59.484375 46.738281 59.03125 C 46.085938 62.234375 43.265625 64.53125 40 64.53125 Z M 40 64.53125 "/>
<use xlink:href="#surface8" mask="url(#mask1)"/>
<path style=" stroke:none;fill-rule:nonzero;fill:rgb(100%,100%,100%);fill-opacity:1;" d="M 45.488281 63.1875 L 40 66.085938 L 34.511719 63.1875 C 34.351562 63.125 34.175781 63.136719 34.027344 63.222656 C 33.878906 63.308594 33.777344 63.457031 33.75 63.625 L 33.75 68.875 C 33.777344 69.042969 33.878906 69.191406 34.027344 69.277344 C 34.175781 69.363281 34.351562 69.375 34.511719 69.3125 L 40 66.414062 L 45.488281 69.3125 C 45.648438 69.375 45.824219 69.363281 45.972656 69.277344 C 46.121094 69.191406 46.222656 69.042969 46.25 68.875 L 46.25 63.625 C 46.222656 63.457031 46.121094 63.308594 45.972656 63.222656 C 45.824219 63.136719 45.648438 63.125 45.488281 63.1875 Z M 45.488281 63.1875 "/>
<use xlink:href="#surface11" mask="url(#mask2)"/>
<path style=" stroke:none;fill-rule:nonzero;fill:rgb(98.431373%,75.294118%,66.666667%);fill-opacity:1;" d="M 27.882812 40.269531 C 27.882812 43.007812 25.664062 45.226562 22.925781 45.226562 C 20.1875 45.226562 17.96875 43.007812 17.96875 40.269531 C 17.96875 37.53125 20.1875 35.3125 22.925781 35.3125 C 25.664062 35.3125 27.882812 37.53125 27.882812 40.269531 Z M 27.882812 40.269531 "/>
<path style=" stroke:none;fill-rule:nonzero;fill:rgb(100%,84.705882%,78.823529%);fill-opacity:1;" d="M 40 61.480469 C 30.222656 61.484375 22.296875 53.558594 22.300781 43.78125 L 22.300781 34.644531 C 22.300781 24.867188 30.222656 16.945312 40 16.945312 C 49.777344 16.945312 57.699219 24.867188 57.699219 34.644531 L 57.699219 43.78125 C 57.703125 53.558594 49.777344 61.484375 40 61.480469 Z M 40 61.480469 "/>
<path style="fill:none;stroke-width:2;stroke-linecap:round;stroke-linejoin:round;stroke:rgb(98.431373%,75.294118%,66.666667%);stroke-opacity:1;stroke-miterlimit:4;" d="M 60 94 C 62.40625 92.325 65.59375 92.325 68 94 " transform="matrix(0.625,0,0,0.625,0,0)"/>
<path style=" stroke:none;fill-rule:nonzero;fill:rgb(22.352941%,23.529412%,32.941176%);fill-opacity:1;" d="M 44.71875 50 C 44.886719 50.007812 45.042969 50.085938 45.152344 50.210938 C 45.261719 50.335938 45.316406 50.5 45.304688 50.667969 C 44.984375 53.359375 42.703125 55.386719 39.992188 55.386719 C 37.285156 55.386719 35 53.359375 34.679688 50.667969 C 34.667969 50.5 34.726562 50.332031 34.839844 50.207031 C 34.953125 50.082031 35.113281 50.007812 35.28125 50 Z M 44.71875 50 "/>
<path style=" stroke:none;fill-rule:nonzero;fill:rgb(97.254902%,33.333333%,39.607843%);fill-opacity:1;" d="M 40 57.5 C 38.621094 57.5 37.5 56.378906 37.5 55 L 37.5 48.125 L 42.5 48.125 L 42.5 55 C 42.5 56.378906 41.378906 57.5 40 57.5 Z M 40 57.5 "/>
<path style=" stroke:none;fill-rule:nonzero;fill:rgb(100%,100%,100%);fill-opacity:1;" d="M 32.03125 51.414062 C 32.03125 47.867188 35.582031 45 39.949219 45 C 44.320312 45 47.867188 47.867188 47.867188 51.414062 "/>
<path style=" stroke:none;fill-rule:nonzero;fill:rgb(98.431373%,75.294118%,66.666667%);fill-opacity:1;" d="M 40 48.125 C 38.273438 48.125 36.875 46.726562 36.875 45 L 36.875 35.625 L 43.125 35.625 L 43.125 45 C 43.125 46.726562 41.726562 48.125 40 48.125 Z M 40 48.125 "/>
<path style=" stroke:none;fill-rule:nonzero;fill:rgb(22.352941%,23.529412%,32.941176%);fill-opacity:1;" d="M 33.21875 39.070312 C 33.21875 40.15625 32.335938 41.039062 31.25 41.039062 C 30.164062 41.039062 29.28125 40.15625 29.28125 39.070312 C 29.28125 37.980469 30.164062 37.101562 31.25 37.101562 C 32.335938 37.101562 33.21875 37.980469 33.21875 39.070312 Z M 33.21875 39.070312 "/>
<path style="fill:none;stroke-width:2;stroke-linecap:round;stroke-linejoin:round;stroke:rgb(98.431373%,75.294118%,66.666667%);stroke-opacity:1;stroke-miterlimit:4;" d="M 56 45 L 72 45 " transform="matrix(0.625,0,0,0.625,0,0)"/>
<path style=" stroke:none;fill-rule:nonzero;fill:rgb(100%,100%,100%);fill-opacity:1;" d="M 51.367188 15.59375 C 51.367188 9.789062 46.253906 5.082031 39.945312 5.082031 C 33.632812 5.082031 28.519531 9.789062 28.519531 15.59375 C 28.519531 21.398438 33.632812 26.105469 39.945312 26.105469 C 46.253906 26.105469 51.367188 21.398438 51.367188 15.59375 Z M 51.367188 15.59375 "/>
<use xlink:href="#surface14" mask="url(#mask3)"/>
<path style=" stroke:none;fill-rule:nonzero;fill:rgb(22.352941%,23.529412%,32.941176%);fill-opacity:1;" d="M 50.71875 39.070312 C 50.71875 40.15625 49.835938 41.039062 48.75 41.039062 C 47.664062 41.039062 46.78125 40.15625 46.78125 39.070312 C 46.78125 37.980469 47.664062 37.101562 48.75 37.101562 C 49.835938 37.101562 50.71875 37.980469 50.71875 39.070312 Z M 50.71875 39.070312 "/>
<path style=" stroke:none;fill-rule:nonzero;fill:rgb(100%,100%,100%);fill-opacity:1;" d="M 54.375 33.605469 C 54.125 34.664062 47.585938 34.011719 46.53125 33.761719 C 45.816406 33.628906 45.230469 33.113281 45.011719 32.421875 C 44.792969 31.726562 44.972656 30.96875 45.484375 30.449219 C 45.992188 29.929688 46.746094 29.734375 47.445312 29.9375 C 48.488281 30.1875 54.613281 32.550781 54.375 33.605469 Z M 25.625 33.605469 C 25.875 34.664062 32.414062 34.011719 33.46875 33.761719 C 34.472656 33.46875 35.074219 32.4375 34.828125 31.417969 C 34.585938 30.398438 33.585938 29.746094 32.554688 29.9375 C 31.511719 30.1875 25.386719 32.550781 25.625 33.605469 Z M 25.625 33.605469 "/>
<path style="fill:none;stroke-width:2;stroke-linecap:round;stroke-linejoin:round;stroke:rgb(98.431373%,75.294118%,66.666667%);stroke-opacity:1;stroke-miterlimit:4;" d="M 75 69 L 81 69 M 47 69 L 53 69 " transform="matrix(0.625,0,0,0.625,0,0)"/>
<path style=" stroke:none;fill-rule:nonzero;fill:rgb(22.352941%,23.529412%,32.941176%);fill-opacity:1;" d="M 65 68.011719 L 63.507812 64.460938 C 62.4375 61.960938 59.617188 60.3125 56.449219 60.3125 L 48.125 60.3125 L 47.875 76.726562 C 54.246094 75.363281 60.148438 72.359375 65 68.011719 Z M 14.742188 68.011719 L 16.25 64.460938 C 17.320312 61.960938 20.144531 60.3125 23.304688 60.3125 L 31.617188 60.3125 L 31.867188 76.726562 C 25.5 75.363281 19.59375 72.359375 14.742188 68.011719 Z M 14.742188 68.011719 "/>
</g>
</svg>
